<svg data-xychart-colors="0" xmlns="http://www.w3.org/2000/svg" viewBox="0 0 750 464" width="750" height="464" style="--bg:#f7f7f8;--fg:#16171d;--line:#a4a4ad;--accent:#8b7bd8;--muted:#7c7d85;--surface:#ece9f8;--border:#d8d8df">
<style>
  @import url('https://fonts.googleapis.com/css2?family=Inter:wght@400;500;600;700&amp;display=swap');
  text { font-family: 'Inter', system-ui, sans-serif; }
  svg {
    /* Derived from --bg and --fg (overridable via --line, --accent, etc.) */
    --_text:          var(--fg);
    --_text-sec:      var(--muted, color-mix(in srgb, var(--fg) 60%, var(--bg)));
    --_text-muted:    var(--muted, color-mix(in srgb, var(--fg) 40%, var(--bg)));
    --_text-faint:    color-mix(in srgb, var(--fg) 25%, var(--bg));
    --_line:          var(--line, color-mix(in srgb, var(--fg) 50%, var(--bg)));
    --_arrow:         var(--accent, color-mix(in srgb, var(--fg) 85%, var(--bg)));
    --_node-fill:     var(--surface, color-mix(in srgb, var(--fg) 3%, var(--bg)));
    --_node-stroke:   var(--border, color-mix(in srgb, var(--fg) 20%, var(--bg)));
    --_group-fill:    var(--bg);
    --_group-hdr:     color-mix(in srgb, var(--fg) 5%, var(--bg));
    --_inner-stroke:  color-mix(in srgb, var(--fg) 12%, var(--bg));
    --_key-badge:     color-mix(in srgb, var(--fg) 10%, var(--bg));
  }
</style>
<style>
  .xychart-grid { fill: var(--_inner-stroke); stroke: none; opacity: 0.65; }
  .xychart-bar { stroke-width: 1.5; }
  .xychart-line { fill: none; stroke-width: 2.5; stroke-linecap: round; stroke-linejoin: round; }
  .xychart-line-shadow { fill: none; stroke-width: 5; stroke-linecap: round; stroke-linejoin: round; opacity: 0.12; }
  .xychart-dot { stroke: var(--bg); stroke-width: 2; }
  .xychart-label { fill: var(--_text-muted); }
  .xychart-axis-title { fill: var(--_text-sec); }
  .xychart-title { fill: var(--_text); }
  svg {
    --xychart-color-0: var(--accent, #3b82f6);
    --xychart-bar-fill-0: color-mix(in srgb, var(--bg) 75%, var(--xychart-color-0) 25%);
  }
  .xychart-bar.xychart-color-0 { stroke: var(--xychart-color-0); fill: var(--xychart-bar-fill-0); }
  path.xychart-color-0, line.xychart-color-0 { stroke: var(--xychart-color-0); }
  circle.xychart-color-0 { fill: var(--xychart-color-0); }
  .xychart-tip { opacity: 0; pointer-events: none; }
  .xychart-tip-bg { fill: var(--_text); filter: drop-shadow(0 1px 3px color-mix(in srgb, var(--fg) 20%, transparent)); }
  .xychart-tip-text { fill: var(--bg); font-size: 15px; font-weight: 500; }
  .xychart-tip-ptr { fill: var(--_text); }
  .xychart-bar-group:hover .xychart-tip,
  .xychart-dot-group:hover .xychart-tip { opacity: 1; }
</style>
<circle cx="118" cy="64" r="1.5" class="xychart-grid"/>
<circle cx="138" cy="64" r="1.5" class="xychart-grid"/>
<circle cx="158" cy="64" r="1.5" class="xychart-grid"/>
<circle cx="178" cy="64" r="1.5" class="xychart-grid"/>
<circle cx="198" cy="64" r="1.5" class="xychart-grid"/>
<circle cx="218" cy="64" r="1.5" class="xychart-grid"/>
<circle cx="238" cy="64" r="1.5" class="xychart-grid"/>
<circle cx="258" cy="64" r="1.5" class="xychart-grid"/>
<circle cx="278" cy="64" r="1.5" class="xychart-grid"/>
<circle cx="298" cy="64" r="1.5" class="xychart-grid"/>
<circle cx="318" cy="64" r="1.5" class="xychart-grid"/>
<circle cx="338" cy="64" r="1.5" class="xychart-grid"/>
<circle cx="358" cy="64" r="1.5" class="xychart-grid"/>
<circle cx="378" cy="64" r="1.5" class="xychart-grid"/>
<circle cx="398" cy="64" r="1.5" class="xychart-grid"/>
<circle cx="418" cy="64" r="1.5" class="xychart-grid"/>
<circle cx="438" cy="64" r="1.5" class="xychart-grid"/>
<circle cx="458" cy="64" r="1.5" class="xychart-grid"/>
<circle cx="478" cy="64" r="1.5" class="xychart-grid"/>
<circle cx="498" cy="64" r="1.5" class="xychart-grid"/>
<circle cx="518" cy="64" r="1.5" class="xychart-grid"/>
<circle cx="538" cy="64" r="1.5" class="xychart-grid"/>
<circle cx="558" cy="64" r="1.5" class="xychart-grid"/>
<circle cx="578" cy="64" r="1.5" class="xychart-grid"/>
<circle cx="598" cy="64" r="1.5" class="xychart-grid"/>
<circle cx="618" cy="64" r="1.5" class="xychart-grid"/>
<circle cx="638" cy="64" r="1.5" class="xychart-grid"/>
<circle cx="658" cy="64" r="1.5" class="xychart-grid"/>
<circle cx="678" cy="64" r="1.5" class="xychart-grid"/>
<circle cx="698" cy="64" r="1.5" class="xychart-grid"/>
<circle cx="718" cy="64" r="1.5" class="xychart-grid"/>
<circle cx="118" cy="86.7" r="1.5" class="xychart-grid"/>
<circle cx="138" cy="86.7" r="1.5" class="xychart-grid"/>
<circle cx="158" cy="86.7" r="1.5" class="xychart-grid"/>
<circle cx="178" cy="86.7" r="1.5" class="xychart-grid"/>
<circle cx="198" cy="86.7" r="1.5" class="xychart-grid"/>
<circle cx="218" cy="86.7" r="1.5" class="xychart-grid"/>
<circle cx="238" cy="86.7" r="1.5" class="xychart-grid"/>
<circle cx="258" cy="86.7" r="1.5" class="xychart-grid"/>
<circle cx="278" cy="86.7" r="1.5" class="xychart-grid"/>
<circle cx="298" cy="86.7" r="1.5" class="xychart-grid"/>
<circle cx="318" cy="86.7" r="1.5" class="xychart-grid"/>
<circle cx="338" cy="86.7" r="1.5" class="xychart-grid"/>
<circle cx="358" cy="86.7" r="1.5" class="xychart-grid"/>
<circle cx="378" cy="86.7" r="1.5" class="xychart-grid"/>
<circle cx="398" cy="86.7" r="1.5" class="xychart-grid"/>
<circle cx="418" cy="86.7" r="1.5" class="xychart-grid"/>
<circle cx="438" cy="86.7" r="1.5" class="xychart-grid"/>
<circle cx="458" cy="86.7" r="1.5" class="xychart-grid"/>
<circle cx="478" cy="86.7" r="1.5" class="xychart-grid"/>
<circle cx="498" cy="86.7" r="1.5" class="xychart-grid"/>
<circle cx="518" cy="86.7" r="1.5" class="xychart-grid"/>
<circle cx="538" cy="86.7" r="1.5" class="xychart-grid"/>
<circle cx="558" cy="86.7" r="1.5" class="xychart-grid"/>
<circle cx="578" cy="86.7" r="1.5" class="xychart-grid"/>
<circle cx="598" cy="86.7" r="1.5" class="xychart-grid"/>
<circle cx="618" cy="86.7" r="1.5" class="xychart-grid"/>
<circle cx="638" cy="86.7" r="1.5" class="xychart-grid"/>
<circle cx="658" cy="86.7" r="1.5" class="xychart-grid"/>
<circle cx="678" cy="86.7" r="1.5" class="xychart-grid"/>
<circle cx="698" cy="86.7" r="1.5" class="xychart-grid"/>
<circle cx="718" cy="86.7" r="1.5" class="xychart-grid"/>
<circle cx="118" cy="109.3" r="1.5" class="xychart-grid"/>
<circle cx="138" cy="109.3" r="1.5" class="xychart-grid"/>
<circle cx="158" cy="109.3" r="1.5" class="xychart-grid"/>
<circle cx="178" cy="109.3" r="1.5" class="xychart-grid"/>
<circle cx="198" cy="109.3" r="1.5" class="xychart-grid"/>
<circle cx="218" cy="109.3" r="1.5" class="xychart-grid"/>
<circle cx="238" cy="109.3" r="1.5" class="xychart-grid"/>
<circle cx="258" cy="109.3" r="1.5" class="xychart-grid"/>
<circle cx="278" cy="109.3" r="1.5" class="xychart-grid"/>
<circle cx="298" cy="109.3" r="1.5" class="xychart-grid"/>
<circle cx="318" cy="109.3" r="1.5" class="xychart-grid"/>
<circle cx="338" cy="109.3" r="1.5" class="xychart-grid"/>
<circle cx="358" cy="109.3" r="1.5" class="xychart-grid"/>
<circle cx="378" cy="109.3" r="1.5" class="xychart-grid"/>
<circle cx="398" cy="109.3" r="1.5" class="xychart-grid"/>
<circle cx="418" cy="109.3" r="1.5" class="xychart-grid"/>
<circle cx="438" cy="109.3" r="1.5" class="xychart-grid"/>
<circle cx="458" cy="109.3" r="1.5" class="xychart-grid"/>
<circle cx="478" cy="109.3" r="1.5" class="xychart-grid"/>
<circle cx="498" cy="109.3" r="1.5" class="xychart-grid"/>
<circle cx="518" cy="109.3" r="1.5" class="xychart-grid"/>
<circle cx="538" cy="109.3" r="1.5" class="xychart-grid"/>
<circle cx="558" cy="109.3" r="1.5" class="xychart-grid"/>
<circle cx="578" cy="109.3" r="1.5" class="xychart-grid"/>
<circle cx="598" cy="109.3" r="1.5" class="xychart-grid"/>
<circle cx="618" cy="109.3" r="1.5" class="xychart-grid"/>
<circle cx="638" cy="109.3" r="1.5" class="xychart-grid"/>
<circle cx="658" cy="109.3" r="1.5" class="xychart-grid"/>
<circle cx="678" cy="109.3" r="1.5" class="xychart-grid"/>
<circle cx="698" cy="109.3" r="1.5" class="xychart-grid"/>
<circle cx="718" cy="109.3" r="1.5" class="xychart-grid"/>
<circle cx="118" cy="132" r="1.5" class="xychart-grid"/>
<circle cx="138" cy="132" r="1.5" class="xychart-grid"/>
<circle cx="158" cy="132" r="1.5" class="xychart-grid"/>
<circle cx="178" cy="132" r="1.5" class="xychart-grid"/>
<circle cx="198" cy="132" r="1.5" class="xychart-grid"/>
<circle cx="218" cy="132" r="1.5" class="xychart-grid"/>
<circle cx="238" cy="132" r="1.5" class="xychart-grid"/>
<circle cx="258" cy="132" r="1.5" class="xychart-grid"/>
<circle cx="278" cy="132" r="1.5" class="xychart-grid"/>
<circle cx="298" cy="132" r="1.5" class="xychart-grid"/>
<circle cx="318" cy="132" r="1.5" class="xychart-grid"/>
<circle cx="338" cy="132" r="1.5" class="xychart-grid"/>
<circle cx="358" cy="132" r="1.5" class="xychart-grid"/>
<circle cx="378" cy="132" r="1.5" class="xychart-grid"/>
<circle cx="398" cy="132" r="1.5" class="xychart-grid"/>
<circle cx="418" cy="132" r="1.5" class="xychart-grid"/>
<circle cx="438" cy="132" r="1.5" class="xychart-grid"/>
<circle cx="458" cy="132" r="1.5" class="xychart-grid"/>
<circle cx="478" cy="132" r="1.5" class="xychart-grid"/>
<circle cx="498" cy="132" r="1.5" class="xychart-grid"/>
<circle cx="518" cy="132" r="1.5" class="xychart-grid"/>
<circle cx="538" cy="132" r="1.5" class="xychart-grid"/>
<circle cx="558" cy="132" r="1.5" class="xychart-grid"/>
<circle cx="578" cy="132" r="1.5" class="xychart-grid"/>
<circle cx="598" cy="132" r="1.5" class="xychart-grid"/>
<circle cx="618" cy="132" r="1.5" class="xychart-grid"/>
<circle cx="638" cy="132" r="1.5" class="xychart-grid"/>
<circle cx="658" cy="132" r="1.5" class="xychart-grid"/>
<circle cx="678" cy="132" r="1.5" class="xychart-grid"/>
<circle cx="698" cy="132" r="1.5" class="xychart-grid"/>
<circle cx="718" cy="132" r="1.5" class="xychart-grid"/>
<circle cx="118" cy="154.7" r="1.5" class="xychart-grid"/>
<circle cx="138" cy="154.7" r="1.5" class="xychart-grid"/>
<circle cx="158" cy="154.7" r="1.5" class="xychart-grid"/>
<circle cx="178" cy="154.7" r="1.5" class="xychart-grid"/>
<circle cx="198" cy="154.7" r="1.5" class="xychart-grid"/>
<circle cx="218" cy="154.7" r="1.5" class="xychart-grid"/>
<circle cx="238" cy="154.7" r="1.5" class="xychart-grid"/>
<circle cx="258" cy="154.7" r="1.5" class="xychart-grid"/>
<circle cx="278" cy="154.7" r="1.5" class="xychart-grid"/>
<circle cx="298" cy="154.7" r="1.5" class="xychart-grid"/>
<circle cx="318" cy="154.7" r="1.5" class="xychart-grid"/>
<circle cx="338" cy="154.7" r="1.5" class="xychart-grid"/>
<circle cx="358" cy="154.7" r="1.5" class="xychart-grid"/>
<circle cx="378" cy="154.7" r="1.5" class="xychart-grid"/>
<circle cx="398" cy="154.7" r="1.5" class="xychart-grid"/>
<circle cx="418" cy="154.7" r="1.5" class="xychart-grid"/>
<circle cx="438" cy="154.7" r="1.5" class="xychart-grid"/>
<circle cx="458" cy="154.7" r="1.5" class="xychart-grid"/>
<circle cx="478" cy="154.7" r="1.5" class="xychart-grid"/>
<circle cx="498" cy="154.7" r="1.5" class="xychart-grid"/>
<circle cx="518" cy="154.7" r="1.5" class="xychart-grid"/>
<circle cx="538" cy="154.7" r="1.5" class="xychart-grid"/>
<circle cx="558" cy="154.7" r="1.5" class="xychart-grid"/>
<circle cx="578" cy="154.7" r="1.5" class="xychart-grid"/>
<circle cx="598" cy="154.7" r="1.5" class="xychart-grid"/>
<circle cx="618" cy="154.7" r="1.5" class="xychart-grid"/>
<circle cx="638" cy="154.7" r="1.5" class="xychart-grid"/>
<circle cx="658" cy="154.7" r="1.5" class="xychart-grid"/>
<circle cx="678" cy="154.7" r="1.5" class="xychart-grid"/>
<circle cx="698" cy="154.7" r="1.5" class="xychart-grid"/>
<circle cx="718" cy="154.7" r="1.5" class="xychart-grid"/>
<circle cx="118" cy="177.3" r="1.5" class="xychart-grid"/>
<circle cx="138" cy="177.3" r="1.5" class="xychart-grid"/>
<circle cx="158" cy="177.3" r="1.5" class="xychart-grid"/>
<circle cx="178" cy="177.3" r="1.5" class="xychart-grid"/>
<circle cx="198" cy="177.3" r="1.5" class="xychart-grid"/>
<circle cx="218" cy="177.3" r="1.5" class="xychart-grid"/>
<circle cx="238" cy="177.3" r="1.5" class="xychart-grid"/>
<circle cx="258" cy="177.3" r="1.5" class="xychart-grid"/>
<circle cx="278" cy="177.3" r="1.5" class="xychart-grid"/>
<circle cx="298" cy="177.3" r="1.5" class="xychart-grid"/>
<circle cx="318" cy="177.3" r="1.5" class="xychart-grid"/>
<circle cx="338" cy="177.3" r="1.5" class="xychart-grid"/>
<circle cx="358" cy="177.3" r="1.5" class="xychart-grid"/>
<circle cx="378" cy="177.3" r="1.5" class="xychart-grid"/>
<circle cx="398" cy="177.3" r="1.5" class="xychart-grid"/>
<circle cx="418" cy="177.3" r="1.5" class="xychart-grid"/>
<circle cx="438" cy="177.3" r="1.5" class="xychart-grid"/>
<circle cx="458" cy="177.3" r="1.5" class="xychart-grid"/>
<circle cx="478" cy="177.3" r="1.5" class="xychart-grid"/>
<circle cx="498" cy="177.3" r="1.5" class="xychart-grid"/>
<circle cx="518" cy="177.3" r="1.5" class="xychart-grid"/>
<circle cx="538" cy="177.3" r="1.5" class="xychart-grid"/>
<circle cx="558" cy="177.3" r="1.5" class="xychart-grid"/>
<circle cx="578" cy="177.3" r="1.5" class="xychart-grid"/>
<circle cx="598" cy="177.3" r="1.5" class="xychart-grid"/>
<circle cx="618" cy="177.3" r="1.5" class="xychart-grid"/>
<circle cx="638" cy="177.3" r="1.5" class="xychart-grid"/>
<circle cx="658" cy="177.3" r="1.5" class="xychart-grid"/>
<circle cx="678" cy="177.3" r="1.5" class="xychart-grid"/>
<circle cx="698" cy="177.3" r="1.5" class="xychart-grid"/>
<circle cx="718" cy="177.3" r="1.5" class="xychart-grid"/>
<circle cx="118" cy="200" r="1.5" class="xychart-grid"/>
<circle cx="138" cy="200" r="1.5" class="xychart-grid"/>
<circle cx="158" cy="200" r="1.5" class="xychart-grid"/>
<circle cx="178" cy="200" r="1.5" class="xychart-grid"/>
<circle cx="198" cy="200" r="1.5" class="xychart-grid"/>
<circle cx="218" cy="200" r="1.5" class="xychart-grid"/>
<circle cx="238" cy="200" r="1.5" class="xychart-grid"/>
<circle cx="258" cy="200" r="1.5" class="xychart-grid"/>
<circle cx="278" cy="200" r="1.5" class="xychart-grid"/>
<circle cx="298" cy="200" r="1.5" class="xychart-grid"/>
<circle cx="318" cy="200" r="1.5" class="xychart-grid"/>
<circle cx="338" cy="200" r="1.5" class="xychart-grid"/>
<circle cx="358" cy="200" r="1.5" class="xychart-grid"/>
<circle cx="378" cy="200" r="1.5" class="xychart-grid"/>
<circle cx="398" cy="200" r="1.5" class="xychart-grid"/>
<circle cx="418" cy="200" r="1.5" class="xychart-grid"/>
<circle cx="438" cy="200" r="1.5" class="xychart-grid"/>
<circle cx="458" cy="200" r="1.5" class="xychart-grid"/>
<circle cx="478" cy="200" r="1.5" class="xychart-grid"/>
<circle cx="498" cy="200" r="1.5" class="xychart-grid"/>
<circle cx="518" cy="200" r="1.5" class="xychart-grid"/>
<circle cx="538" cy="200" r="1.5" class="xychart-grid"/>
<circle cx="558" cy="200" r="1.5" class="xychart-grid"/>
<circle cx="578" cy="200" r="1.5" class="xychart-grid"/>
<circle cx="598" cy="200" r="1.5" class="xychart-grid"/>
<circle cx="618" cy="200" r="1.5" class="xychart-grid"/>
<circle cx="638" cy="200" r="1.5" class="xychart-grid"/>
<circle cx="658" cy="200" r="1.5" class="xychart-grid"/>
<circle cx="678" cy="200" r="1.5" class="xychart-grid"/>
<circle cx="698" cy="200" r="1.5" class="xychart-grid"/>
<circle cx="718" cy="200" r="1.5" class="xychart-grid"/>
<circle cx="118" cy="222.7" r="1.5" class="xychart-grid"/>
<circle cx="138" cy="222.7" r="1.5" class="xychart-grid"/>
<circle cx="158" cy="222.7" r="1.5" class="xychart-grid"/>
<circle cx="178" cy="222.7" r="1.5" class="xychart-grid"/>
<circle cx="198" cy="222.7" r="1.5" class="xychart-grid"/>
<circle cx="218" cy="222.7" r="1.5" class="xychart-grid"/>
<circle cx="238" cy="222.7" r="1.5" class="xychart-grid"/>
<circle cx="258" cy="222.7" r="1.5" class="xychart-grid"/>
<circle cx="278" cy="222.7" r="1.5" class="xychart-grid"/>
<circle cx="298" cy="222.7" r="1.5" class="xychart-grid"/>
<circle cx="318" cy="222.7" r="1.5" class="xychart-grid"/>
<circle cx="338" cy="222.7" r="1.5" class="xychart-grid"/>
<circle cx="358" cy="222.7" r="1.5" class="xychart-grid"/>
<circle cx="378" cy="222.7" r="1.5" class="xychart-grid"/>
<circle cx="398" cy="222.7" r="1.5" class="xychart-grid"/>
<circle cx="418" cy="222.7" r="1.5" class="xychart-grid"/>
<circle cx="438" cy="222.7" r="1.5" class="xychart-grid"/>
<circle cx="458" cy="222.7" r="1.5" class="xychart-grid"/>
<circle cx="478" cy="222.7" r="1.5" class="xychart-grid"/>
<circle cx="498" cy="222.7" r="1.5" class="xychart-grid"/>
<circle cx="518" cy="222.7" r="1.5" class="xychart-grid"/>
<circle cx="538" cy="222.7" r="1.5" class="xychart-grid"/>
<circle cx="558" cy="222.7" r="1.5" class="xychart-grid"/>
<circle cx="578" cy="222.7" r="1.5" class="xychart-grid"/>
<circle cx="598" cy="222.7" r="1.5" class="xychart-grid"/>
<circle cx="618" cy="222.7" r="1.5" class="xychart-grid"/>
<circle cx="638" cy="222.7" r="1.5" class="xychart-grid"/>
<circle cx="658" cy="222.7" r="1.5" class="xychart-grid"/>
<circle cx="678" cy="222.7" r="1.5" class="xychart-grid"/>
<circle cx="698" cy="222.7" r="1.5" class="xychart-grid"/>
<circle cx="718" cy="222.7" r="1.5" class="xychart-grid"/>
<circle cx="118" cy="245.3" r="1.5" class="xychart-grid"/>
<circle cx="138" cy="245.3" r="1.5" class="xychart-grid"/>
<circle cx="158" cy="245.3" r="1.5" class="xychart-grid"/>
<circle cx="178" cy="245.3" r="1.5" class="xychart-grid"/>
<circle cx="198" cy="245.3" r="1.5" class="xychart-grid"/>
<circle cx="218" cy="245.3" r="1.5" class="xychart-grid"/>
<circle cx="238" cy="245.3" r="1.5" class="xychart-grid"/>
<circle cx="258" cy="245.3" r="1.5" class="xychart-grid"/>
<circle cx="278" cy="245.3" r="1.5" class="xychart-grid"/>
<circle cx="298" cy="245.3" r="1.5" class="xychart-grid"/>
<circle cx="318" cy="245.3" r="1.5" class="xychart-grid"/>
<circle cx="338" cy="245.3" r="1.5" class="xychart-grid"/>
<circle cx="358" cy="245.3" r="1.5" class="xychart-grid"/>
<circle cx="378" cy="245.3" r="1.5" class="xychart-grid"/>
<circle cx="398" cy="245.3" r="1.5" class="xychart-grid"/>
<circle cx="418" cy="245.3" r="1.5" class="xychart-grid"/>
<circle cx="438" cy="245.3" r="1.5" class="xychart-grid"/>
<circle cx="458" cy="245.3" r="1.5" class="xychart-grid"/>
<circle cx="478" cy="245.3" r="1.5" class="xychart-grid"/>
<circle cx="498" cy="245.3" r="1.5" class="xychart-grid"/>
<circle cx="518" cy="245.3" r="1.5" class="xychart-grid"/>
<circle cx="538" cy="245.3" r="1.5" class="xychart-grid"/>
<circle cx="558" cy="245.3" r="1.5" class="xychart-grid"/>
<circle cx="578" cy="245.3" r="1.5" class="xychart-grid"/>
<circle cx="598" cy="245.3" r="1.5" class="xychart-grid"/>
<circle cx="618" cy="245.3" r="1.5" class="xychart-grid"/>
<circle cx="638" cy="245.3" r="1.5" class="xychart-grid"/>
<circle cx="658" cy="245.3" r="1.5" class="xychart-grid"/>
<circle cx="678" cy="245.3" r="1.5" class="xychart-grid"/>
<circle cx="698" cy="245.3" r="1.5" class="xychart-grid"/>
<circle cx="718" cy="245.3" r="1.5" class="xychart-grid"/>
<circle cx="118" cy="268" r="1.5" class="xychart-grid"/>
<circle cx="138" cy="268" r="1.5" class="xychart-grid"/>
<circle cx="158" cy="268" r="1.5" class="xychart-grid"/>
<circle cx="178" cy="268" r="1.5" class="xychart-grid"/>
<circle cx="198" cy="268" r="1.5" class="xychart-grid"/>
<circle cx="218" cy="268" r="1.5" class="xychart-grid"/>
<circle cx="238" cy="268" r="1.5" class="xychart-grid"/>
<circle cx="258" cy="268" r="1.5" class="xychart-grid"/>
<circle cx="278" cy="268" r="1.5" class="xychart-grid"/>
<circle cx="298" cy="268" r="1.5" class="xychart-grid"/>
<circle cx="318" cy="268" r="1.5" class="xychart-grid"/>
<circle cx="338" cy="268" r="1.5" class="xychart-grid"/>
<circle cx="358" cy="268" r="1.5" class="xychart-grid"/>
<circle cx="378" cy="268" r="1.5" class="xychart-grid"/>
<circle cx="398" cy="268" r="1.5" class="xychart-grid"/>
<circle cx="418" cy="268" r="1.5" class="xychart-grid"/>
<circle cx="438" cy="268" r="1.5" class="xychart-grid"/>
<circle cx="458" cy="268" r="1.5" class="xychart-grid"/>
<circle cx="478" cy="268" r="1.5" class="xychart-grid"/>
<circle cx="498" cy="268" r="1.5" class="xychart-grid"/>
<circle cx="518" cy="268" r="1.5" class="xychart-grid"/>
<circle cx="538" cy="268" r="1.5" class="xychart-grid"/>
<circle cx="558" cy="268" r="1.5" class="xychart-grid"/>
<circle cx="578" cy="268" r="1.5" class="xychart-grid"/>
<circle cx="598" cy="268" r="1.5" class="xychart-grid"/>
<circle cx="618" cy="268" r="1.5" class="xychart-grid"/>
<circle cx="638" cy="268" r="1.5" class="xychart-grid"/>
<circle cx="658" cy="268" r="1.5" class="xychart-grid"/>
<circle cx="678" cy="268" r="1.5" class="xychart-grid"/>
<circle cx="698" cy="268" r="1.5" class="xychart-grid"/>
<circle cx="718" cy="268" r="1.5" class="xychart-grid"/>
<circle cx="118" cy="290.7" r="1.5" class="xychart-grid"/>
<circle cx="138" cy="290.7" r="1.5" class="xychart-grid"/>
<circle cx="158" cy="290.7" r="1.5" class="xychart-grid"/>
<circle cx="178" cy="290.7" r="1.5" class="xychart-grid"/>
<circle cx="198" cy="290.7" r="1.5" class="xychart-grid"/>
<circle cx="218" cy="290.7" r="1.5" class="xychart-grid"/>
<circle cx="238" cy="290.7" r="1.5" class="xychart-grid"/>
<circle cx="258" cy="290.7" r="1.5" class="xychart-grid"/>
<circle cx="278" cy="290.7" r="1.5" class="xychart-grid"/>
<circle cx="298" cy="290.7" r="1.5" class="xychart-grid"/>
<circle cx="318" cy="290.7" r="1.5" class="xychart-grid"/>
<circle cx="338" cy="290.7" r="1.5" class="xychart-grid"/>
<circle cx="358" cy="290.7" r="1.5" class="xychart-grid"/>
<circle cx="378" cy="290.7" r="1.5" class="xychart-grid"/>
<circle cx="398" cy="290.7" r="1.5" class="xychart-grid"/>
<circle cx="418" cy="290.7" r="1.5" class="xychart-grid"/>
<circle cx="438" cy="290.7" r="1.5" class="xychart-grid"/>
<circle cx="458" cy="290.7" r="1.5" class="xychart-grid"/>
<circle cx="478" cy="290.7" r="1.5" class="xychart-grid"/>
<circle cx="498" cy="290.7" r="1.5" class="xychart-grid"/>
<circle cx="518" cy="290.7" r="1.5" class="xychart-grid"/>
<circle cx="538" cy="290.7" r="1.5" class="xychart-grid"/>
<circle cx="558" cy="290.7" r="1.5" class="xychart-grid"/>
<circle cx="578" cy="290.7" r="1.5" class="xychart-grid"/>
<circle cx="598" cy="290.7" r="1.5" class="xychart-grid"/>
<circle cx="618" cy="290.7" r="1.5" class="xychart-grid"/>
<circle cx="638" cy="290.7" r="1.5" class="xychart-grid"/>
<circle cx="658" cy="290.7" r="1.5" class="xychart-grid"/>
<circle cx="678" cy="290.7" r="1.5" class="xychart-grid"/>
<circle cx="698" cy="290.7" r="1.5" class="xychart-grid"/>
<circle cx="718" cy="290.7" r="1.5" class="xychart-grid"/>
<circle cx="118" cy="313.3" r="1.5" class="xychart-grid"/>
<circle cx="138" cy="313.3" r="1.5" class="xychart-grid"/>
<circle cx="158" cy="313.3" r="1.5" class="xychart-grid"/>
<circle cx="178" cy="313.3" r="1.5" class="xychart-grid"/>
<circle cx="198" cy="313.3" r="1.5" class="xychart-grid"/>
<circle cx="218" cy="313.3" r="1.5" class="xychart-grid"/>
<circle cx="238" cy="313.3" r="1.5" class="xychart-grid"/>
<circle cx="258" cy="313.3" r="1.5" class="xychart-grid"/>
<circle cx="278" cy="313.3" r="1.5" class="xychart-grid"/>
<circle cx="298" cy="313.3" r="1.5" class="xychart-grid"/>
<circle cx="318" cy="313.3" r="1.5" class="xychart-grid"/>
<circle cx="338" cy="313.3" r="1.5" class="xychart-grid"/>
<circle cx="358" cy="313.3" r="1.5" class="xychart-grid"/>
<circle cx="378" cy="313.3" r="1.5" class="xychart-grid"/>
<circle cx="398" cy="313.3" r="1.5" class="xychart-grid"/>
<circle cx="418" cy="313.3" r="1.5" class="xychart-grid"/>
<circle cx="438" cy="313.3" r="1.5" class="xychart-grid"/>
<circle cx="458" cy="313.3" r="1.5" class="xychart-grid"/>
<circle cx="478" cy="313.3" r="1.5" class="xychart-grid"/>
<circle cx="498" cy="313.3" r="1.5" class="xychart-grid"/>
<circle cx="518" cy="313.3" r="1.5" class="xychart-grid"/>
<circle cx="538" cy="313.3" r="1.5" class="xychart-grid"/>
<circle cx="558" cy="313.3" r="1.5" class="xychart-grid"/>
<circle cx="578" cy="313.3" r="1.5" class="xychart-grid"/>
<circle cx="598" cy="313.3" r="1.5" class="xychart-grid"/>
<circle cx="618" cy="313.3" r="1.5" class="xychart-grid"/>
<circle cx="638" cy="313.3" r="1.5" class="xychart-grid"/>
<circle cx="658" cy="313.3" r="1.5" class="xychart-grid"/>
<circle cx="678" cy="313.3" r="1.5" class="xychart-grid"/>
<circle cx="698" cy="313.3" r="1.5" class="xychart-grid"/>
<circle cx="718" cy="313.3" r="1.5" class="xychart-grid"/>
<circle cx="118" cy="336" r="1.5" class="xychart-grid"/>
<circle cx="138" cy="336" r="1.5" class="xychart-grid"/>
<circle cx="158" cy="336" r="1.5" class="xychart-grid"/>
<circle cx="178" cy="336" r="1.5" class="xychart-grid"/>
<circle cx="198" cy="336" r="1.5" class="xychart-grid"/>
<circle cx="218" cy="336" r="1.5" class="xychart-grid"/>
<circle cx="238" cy="336" r="1.5" class="xychart-grid"/>
<circle cx="258" cy="336" r="1.5" class="xychart-grid"/>
<circle cx="278" cy="336" r="1.5" class="xychart-grid"/>
<circle cx="298" cy="336" r="1.5" class="xychart-grid"/>
<circle cx="318" cy="336" r="1.5" class="xychart-grid"/>
<circle cx="338" cy="336" r="1.5" class="xychart-grid"/>
<circle cx="358" cy="336" r="1.5" class="xychart-grid"/>
<circle cx="378" cy="336" r="1.5" class="xychart-grid"/>
<circle cx="398" cy="336" r="1.5" class="xychart-grid"/>
<circle cx="418" cy="336" r="1.5" class="xychart-grid"/>
<circle cx="438" cy="336" r="1.5" class="xychart-grid"/>
<circle cx="458" cy="336" r="1.5" class="xychart-grid"/>
<circle cx="478" cy="336" r="1.5" class="xychart-grid"/>
<circle cx="498" cy="336" r="1.5" class="xychart-grid"/>
<circle cx="518" cy="336" r="1.5" class="xychart-grid"/>
<circle cx="538" cy="336" r="1.5" class="xychart-grid"/>
<circle cx="558" cy="336" r="1.5" class="xychart-grid"/>
<circle cx="578" cy="336" r="1.5" class="xychart-grid"/>
<circle cx="598" cy="336" r="1.5" class="xychart-grid"/>
<circle cx="618" cy="336" r="1.5" class="xychart-grid"/>
<circle cx="638" cy="336" r="1.5" class="xychart-grid"/>
<circle cx="658" cy="336" r="1.5" class="xychart-grid"/>
<circle cx="678" cy="336" r="1.5" class="xychart-grid"/>
<circle cx="698" cy="336" r="1.5" class="xychart-grid"/>
<circle cx="718" cy="336" r="1.5" class="xychart-grid"/>
<circle cx="118" cy="358.7" r="1.5" class="xychart-grid"/>
<circle cx="138" cy="358.7" r="1.5" class="xychart-grid"/>
<circle cx="158" cy="358.7" r="1.5" class="xychart-grid"/>
<circle cx="178" cy="358.7" r="1.5" class="xychart-grid"/>
<circle cx="198" cy="358.7" r="1.5" class="xychart-grid"/>
<circle cx="218" cy="358.7" r="1.5" class="xychart-grid"/>
<circle cx="238" cy="358.7" r="1.5" class="xychart-grid"/>
<circle cx="258" cy="358.7" r="1.5" class="xychart-grid"/>
<circle cx="278" cy="358.7" r="1.5" class="xychart-grid"/>
<circle cx="298" cy="358.7" r="1.5" class="xychart-grid"/>
<circle cx="318" cy="358.7" r="1.5" class="xychart-grid"/>
<circle cx="338" cy="358.7" r="1.5" class="xychart-grid"/>
<circle cx="358" cy="358.7" r="1.5" class="xychart-grid"/>
<circle cx="378" cy="358.7" r="1.5" class="xychart-grid"/>
<circle cx="398" cy="358.7" r="1.5" class="xychart-grid"/>
<circle cx="418" cy="358.7" r="1.5" class="xychart-grid"/>
<circle cx="438" cy="358.7" r="1.5" class="xychart-grid"/>
<circle cx="458" cy="358.7" r="1.5" class="xychart-grid"/>
<circle cx="478" cy="358.7" r="1.5" class="xychart-grid"/>
<circle cx="498" cy="358.7" r="1.5" class="xychart-grid"/>
<circle cx="518" cy="358.7" r="1.5" class="xychart-grid"/>
<circle cx="538" cy="358.7" r="1.5" class="xychart-grid"/>
<circle cx="558" cy="358.7" r="1.5" class="xychart-grid"/>
<circle cx="578" cy="358.7" r="1.5" class="xychart-grid"/>
<circle cx="598" cy="358.7" r="1.5" class="xychart-grid"/>
<circle cx="618" cy="358.7" r="1.5" class="xychart-grid"/>
<circle cx="638" cy="358.7" r="1.5" class="xychart-grid"/>
<circle cx="658" cy="358.7" r="1.5" class="xychart-grid"/>
<circle cx="678" cy="358.7" r="1.5" class="xychart-grid"/>
<circle cx="698" cy="358.7" r="1.5" class="xychart-grid"/>
<circle cx="718" cy="358.7" r="1.5" class="xychart-grid"/>
<circle cx="118" cy="381.3" r="1.5" class="xychart-grid"/>
<circle cx="138" cy="381.3" r="1.5" class="xychart-grid"/>
<circle cx="158" cy="381.3" r="1.5" class="xychart-grid"/>
<circle cx="178" cy="381.3" r="1.5" class="xychart-grid"/>
<circle cx="198" cy="381.3" r="1.5" class="xychart-grid"/>
<circle cx="218" cy="381.3" r="1.5" class="xychart-grid"/>
<circle cx="238" cy="381.3" r="1.5" class="xychart-grid"/>
<circle cx="258" cy="381.3" r="1.5" class="xychart-grid"/>
<circle cx="278" cy="381.3" r="1.5" class="xychart-grid"/>
<circle cx="298" cy="381.3" r="1.5" class="xychart-grid"/>
<circle cx="318" cy="381.3" r="1.5" class="xychart-grid"/>
<circle cx="338" cy="381.3" r="1.5" class="xychart-grid"/>
<circle cx="358" cy="381.3" r="1.5" class="xychart-grid"/>
<circle cx="378" cy="381.3" r="1.5" class="xychart-grid"/>
<circle cx="398" cy="381.3" r="1.5" class="xychart-grid"/>
<circle cx="418" cy="381.3" r="1.5" class="xychart-grid"/>
<circle cx="438" cy="381.3" r="1.5" class="xychart-grid"/>
<circle cx="458" cy="381.3" r="1.5" class="xychart-grid"/>
<circle cx="478" cy="381.3" r="1.5" class="xychart-grid"/>
<circle cx="498" cy="381.3" r="1.5" class="xychart-grid"/>
<circle cx="518" cy="381.3" r="1.5" class="xychart-grid"/>
<circle cx="538" cy="381.3" r="1.5" class="xychart-grid"/>
<circle cx="558" cy="381.3" r="1.5" class="xychart-grid"/>
<circle cx="578" cy="381.3" r="1.5" class="xychart-grid"/>
<circle cx="598" cy="381.3" r="1.5" class="xychart-grid"/>
<circle cx="618" cy="381.3" r="1.5" class="xychart-grid"/>
<circle cx="638" cy="381.3" r="1.5" class="xychart-grid"/>
<circle cx="658" cy="381.3" r="1.5" class="xychart-grid"/>
<circle cx="678" cy="381.3" r="1.5" class="xychart-grid"/>
<circle cx="698" cy="381.3" r="1.5" class="xychart-grid"/>
<circle cx="718" cy="381.3" r="1.5" class="xychart-grid"/>
<circle cx="118" cy="404" r="1.5" class="xychart-grid"/>
<circle cx="138" cy="404" r="1.5" class="xychart-grid"/>
<circle cx="158" cy="404" r="1.5" class="xychart-grid"/>
<circle cx="178" cy="404" r="1.5" class="xychart-grid"/>
<circle cx="198" cy="404" r="1.5" class="xychart-grid"/>
<circle cx="218" cy="404" r="1.5" class="xychart-grid"/>
<circle cx="238" cy="404" r="1.5" class="xychart-grid"/>
<circle cx="258" cy="404" r="1.5" class="xychart-grid"/>
<circle cx="278" cy="404" r="1.5" class="xychart-grid"/>
<circle cx="298" cy="404" r="1.5" class="xychart-grid"/>
<circle cx="318" cy="404" r="1.5" class="xychart-grid"/>
<circle cx="338" cy="404" r="1.5" class="xychart-grid"/>
<circle cx="358" cy="404" r="1.5" class="xychart-grid"/>
<circle cx="378" cy="404" r="1.5" class="xychart-grid"/>
<circle cx="398" cy="404" r="1.5" class="xychart-grid"/>
<circle cx="418" cy="404" r="1.5" class="xychart-grid"/>
<circle cx="438" cy="404" r="1.5" class="xychart-grid"/>
<circle cx="458" cy="404" r="1.5" class="xychart-grid"/>
<circle cx="478" cy="404" r="1.5" class="xychart-grid"/>
<circle cx="498" cy="404" r="1.5" class="xychart-grid"/>
<circle cx="518" cy="404" r="1.5" class="xychart-grid"/>
<circle cx="538" cy="404" r="1.5" class="xychart-grid"/>
<circle cx="558" cy="404" r="1.5" class="xychart-grid"/>
<circle cx="578" cy="404" r="1.5" class="xychart-grid"/>
<circle cx="598" cy="404" r="1.5" class="xychart-grid"/>
<circle cx="618" cy="404" r="1.5" class="xychart-grid"/>
<circle cx="638" cy="404" r="1.5" class="xychart-grid"/>
<circle cx="658" cy="404" r="1.5" class="xychart-grid"/>
<circle cx="678" cy="404" r="1.5" class="xychart-grid"/>
<circle cx="698" cy="404" r="1.5" class="xychart-grid"/>
<circle cx="718" cy="404" r="1.5" class="xychart-grid"/>
<path d="M158,289.6 Q158,281.6 166,281.6 L190,281.6 Q198,281.6 198,289.6 L198,396 Q198,404 190,404 L166,404 Q158,404 158,396 Z" class="xychart-bar xychart-color-0" data-value="180" data-label="Jan"/>
<path d="M258,242 Q258,234 266,234 L290,234 Q298,234 298,242 L298,396 Q298,404 290,404 L266,404 Q258,404 258,396 Z" class="xychart-bar xychart-color-0" data-value="250" data-label="Feb"/>
<path d="M358,201.2 Q358,193.2 366,193.2 L390,193.2 Q398,193.2 398,201.2 L398,396 Q398,404 390,404 L366,404 Q358,404 358,396 Z" class="xychart-bar xychart-color-0" data-value="310" data-label="Mar"/>
<path d="M458,221.6 Q458,213.6 466,213.6 L490,213.6 Q498,213.6 498,221.6 L498,396 Q498,404 490,404 L466,404 Q458,404 458,396 Z" class="xychart-bar xychart-color-0" data-value="280" data-label="Apr"/>
<path d="M558,174 Q558,166 566,166 L590,166 Q598,166 598,174 L598,396 Q598,404 590,404 L566,404 Q558,404 558,396 Z" class="xychart-bar xychart-color-0" data-value="350" data-label="May"/>
<path d="M658,126.4 Q658,118.4 666,118.4 L690,118.4 Q698,118.4 698,126.4 L698,396 Q698,404 690,404 L666,404 Q658,404 658,396 Z" class="xychart-bar xychart-color-0" data-value="420" data-label="Jun"/>
<text x="178" y="422" text-anchor="middle" font-size="14" font-weight="400" dy="0.35em" class="xychart-label">Jan</text>
<text x="278" y="422" text-anchor="middle" font-size="14" font-weight="400" dy="0.35em" class="xychart-label">Feb</text>
<text x="378" y="422" text-anchor="middle" font-size="14" font-weight="400" dy="0.35em" class="xychart-label">Mar</text>
<text x="478" y="422" text-anchor="middle" font-size="14" font-weight="400" dy="0.35em" class="xychart-label">Apr</text>
<text x="578" y="422" text-anchor="middle" font-size="14" font-weight="400" dy="0.35em" class="xychart-label">May</text>
<text x="678" y="422" text-anchor="middle" font-size="14" font-weight="400" dy="0.35em" class="xychart-label">Jun</text>
<text x="110" y="404" text-anchor="end" font-size="14" font-weight="400" dy="0.35em" class="xychart-label">0</text>
<text x="110" y="336" text-anchor="end" font-size="14" font-weight="400" dy="0.35em" class="xychart-label">100</text>
<text x="110" y="268" text-anchor="end" font-size="14" font-weight="400" dy="0.35em" class="xychart-label">200</text>
<text x="110" y="200" text-anchor="end" font-size="14" font-weight="400" dy="0.35em" class="xychart-label">300</text>
<text x="110" y="132" text-anchor="end" font-size="14" font-weight="400" dy="0.35em" class="xychart-label">400</text>
<text x="110" y="64" text-anchor="end" font-size="14" font-weight="400" dy="0.35em" class="xychart-label">500</text>
<text x="26" y="234" text-anchor="middle" transform="rotate(-90,26,234)" font-size="15" font-weight="500" dy="0.35em" class="xychart-axis-title">Notes</text>
<text x="375" y="40" text-anchor="middle" font-size="18" font-weight="600" dy="0.35em" class="xychart-title">Monthly Notes Created</text>
<g class="xychart-bar-group"><rect x="158" y="281.6" width="40" height="122.4" fill="transparent"/><title>Jan: 180</title><rect x="152.6" y="231.6" width="50.8" height="32" rx="8" class="xychart-tip xychart-tip-bg"/><polygon points="172,263.6 184,263.6 178,269.6" class="xychart-tip xychart-tip-ptr"/><text x="178" y="247.6" text-anchor="middle" dy="0.35em" class="xychart-tip xychart-tip-text">180</text></g>
<g class="xychart-bar-group"><rect x="258" y="234" width="40" height="170" fill="transparent"/><title>Feb: 250</title><rect x="250.1" y="184" width="55.9" height="32" rx="8" class="xychart-tip xychart-tip-bg"/><polygon points="272,216 284,216 278,222" class="xychart-tip xychart-tip-ptr"/><text x="278" y="200" text-anchor="middle" dy="0.35em" class="xychart-tip xychart-tip-text">250</text></g>
<g class="xychart-bar-group"><rect x="358" y="193.2" width="40" height="210.8" fill="transparent"/><title>Mar: 310</title><rect x="352.6" y="143.2" width="50.8" height="32" rx="8" class="xychart-tip xychart-tip-bg"/><polygon points="372,175.2 384,175.2 378,181.2" class="xychart-tip xychart-tip-ptr"/><text x="378" y="159.2" text-anchor="middle" dy="0.35em" class="xychart-tip xychart-tip-text">310</text></g>
<g class="xychart-bar-group"><rect x="458" y="213.6" width="40" height="190.4" fill="transparent"/><title>Apr: 280</title><rect x="450.1" y="163.6" width="55.9" height="32" rx="8" class="xychart-tip xychart-tip-bg"/><polygon points="472,195.6 484,195.6 478,201.6" class="xychart-tip xychart-tip-ptr"/><text x="478" y="179.6" text-anchor="middle" dy="0.35em" class="xychart-tip xychart-tip-text">280</text></g>
<g class="xychart-bar-group"><rect x="558" y="166" width="40" height="238" fill="transparent"/><title>May: 350</title><rect x="550.1" y="116" width="55.9" height="32" rx="8" class="xychart-tip xychart-tip-bg"/><polygon points="572,148 584,148 578,154" class="xychart-tip xychart-tip-ptr"/><text x="578" y="132" text-anchor="middle" dy="0.35em" class="xychart-tip xychart-tip-text">350</text></g>
<g class="xychart-bar-group"><rect x="658" y="118.4" width="40" height="285.6" fill="transparent"/><title>Jun: 420</title><rect x="650.1" y="68.4" width="55.9" height="32" rx="8" class="xychart-tip xychart-tip-bg"/><polygon points="672,100.4 684,100.4 678,106.4" class="xychart-tip xychart-tip-ptr"/><text x="678" y="84.4" text-anchor="middle" dy="0.35em" class="xychart-tip xychart-tip-text">420</text></g>
</svg>