<svg data-xychart-colors="1" xmlns="http://www.w3.org/2000/svg" viewBox="0 0 750 492" width="750" height="492" style="--bg:#f7f7f8;--fg:#16171d;--line:#a4a4ad;--accent:#8b7bd8;--muted:#7c7d85;--surface:#ece9f8;--border:#d8d8df">
<style>
  @import url('https://fonts.googleapis.com/css2?family=Inter:wght@400;500;600;700&amp;display=swap');
  text { font-family: 'Inter', system-ui, sans-serif; }
  svg {
    /* Derived from --bg and --fg (overridable via --line, --accent, etc.) */
    --_text:          var(--fg);
    --_text-sec:      var(--muted, color-mix(in srgb, var(--fg) 60%, var(--bg)));
    --_text-muted:    var(--muted, color-mix(in srgb, var(--fg) 40%, var(--bg)));
    --_text-faint:    color-mix(in srgb, var(--fg) 25%, var(--bg));
    --_line:          var(--line, color-mix(in srgb, var(--fg) 50%, var(--bg)));
    --_arrow:         var(--accent, color-mix(in srgb, var(--fg) 85%, var(--bg)));
    --_node-fill:     var(--surface, color-mix(in srgb, var(--fg) 3%, var(--bg)));
    --_node-stroke:   var(--border, color-mix(in srgb, var(--fg) 20%, var(--bg)));
    --_group-fill:    var(--bg);
    --_group-hdr:     color-mix(in srgb, var(--fg) 5%, var(--bg));
    --_inner-stroke:  color-mix(in srgb, var(--fg) 12%, var(--bg));
    --_key-badge:     color-mix(in srgb, var(--fg) 10%, var(--bg));
  }
</style>
<style>
  .xychart-grid { fill: var(--_inner-stroke); stroke: none; opacity: 0.65; }
  .xychart-bar { stroke-width: 1.5; }
  .xychart-line { fill: none; stroke-width: 2.5; stroke-linecap: round; stroke-linejoin: round; }
  .xychart-line-shadow { fill: none; stroke-width: 5; stroke-linecap: round; stroke-linejoin: round; opacity: 0.12; }
  .xychart-dot { stroke: var(--bg); stroke-width: 2; }
  .xychart-label { fill: var(--_text-muted); }
  .xychart-axis-title { fill: var(--_text-sec); }
  .xychart-title { fill: var(--_text); }
  svg {
    --xychart-color-0: var(--accent, #3b82f6);
    --xychart-bar-fill-0: color-mix(in srgb, var(--bg) 75%, var(--xychart-color-0) 25%);
    --xychart-color-1: #2c288a;
    --xychart-bar-fill-1: color-mix(in srgb, var(--bg) 75%, var(--xychart-color-1) 25%);
  }
  .xychart-bar.xychart-color-0 { stroke: var(--xychart-color-0); fill: var(--xychart-bar-fill-0); }
  path.xychart-color-0, line.xychart-color-0 { stroke: var(--xychart-color-0); }
  circle.xychart-color-0 { fill: var(--xychart-color-0); }
  .xychart-bar.xychart-color-1 { stroke: var(--xychart-color-1); fill: var(--xychart-bar-fill-1); }
  path.xychart-color-1, line.xychart-color-1 { stroke: var(--xychart-color-1); }
  circle.xychart-color-1 { fill: var(--xychart-color-1); }
  .xychart-tip { opacity: 0; pointer-events: none; }
  .xychart-tip-bg { fill: var(--_text); filter: drop-shadow(0 1px 3px color-mix(in srgb, var(--fg) 20%, transparent)); }
  .xychart-tip-text { fill: var(--bg); font-size: 15px; font-weight: 500; }
  .xychart-tip-ptr { fill: var(--_text); }
  .xychart-bar-group:hover .xychart-tip,
  .xychart-dot-group:hover .xychart-tip { opacity: 1; }
</style>
<circle cx="128" cy="84.3" r="1.5" class="xychart-grid"/>
<circle cx="146.8" cy="84.3" r="1.5" class="xychart-grid"/>
<circle cx="165.5" cy="84.3" r="1.5" class="xychart-grid"/>
<circle cx="184.3" cy="84.3" r="1.5" class="xychart-grid"/>
<circle cx="203" cy="84.3" r="1.5" class="xychart-grid"/>
<circle cx="221.8" cy="84.3" r="1.5" class="xychart-grid"/>
<circle cx="240.5" cy="84.3" r="1.5" class="xychart-grid"/>
<circle cx="259.3" cy="84.3" r="1.5" class="xychart-grid"/>
<circle cx="278" cy="84.3" r="1.5" class="xychart-grid"/>
<circle cx="296.8" cy="84.3" r="1.5" class="xychart-grid"/>
<circle cx="315.5" cy="84.3" r="1.5" class="xychart-grid"/>
<circle cx="334.3" cy="84.3" r="1.5" class="xychart-grid"/>
<circle cx="353" cy="84.3" r="1.5" class="xychart-grid"/>
<circle cx="371.8" cy="84.3" r="1.5" class="xychart-grid"/>
<circle cx="390.5" cy="84.3" r="1.5" class="xychart-grid"/>
<circle cx="409.3" cy="84.3" r="1.5" class="xychart-grid"/>
<circle cx="428" cy="84.3" r="1.5" class="xychart-grid"/>
<circle cx="446.8" cy="84.3" r="1.5" class="xychart-grid"/>
<circle cx="465.5" cy="84.3" r="1.5" class="xychart-grid"/>
<circle cx="484.3" cy="84.3" r="1.5" class="xychart-grid"/>
<circle cx="503" cy="84.3" r="1.5" class="xychart-grid"/>
<circle cx="521.8" cy="84.3" r="1.5" class="xychart-grid"/>
<circle cx="540.5" cy="84.3" r="1.5" class="xychart-grid"/>
<circle cx="559.3" cy="84.3" r="1.5" class="xychart-grid"/>
<circle cx="578" cy="84.3" r="1.5" class="xychart-grid"/>
<circle cx="596.8" cy="84.3" r="1.5" class="xychart-grid"/>
<circle cx="615.5" cy="84.3" r="1.5" class="xychart-grid"/>
<circle cx="634.3" cy="84.3" r="1.5" class="xychart-grid"/>
<circle cx="653" cy="84.3" r="1.5" class="xychart-grid"/>
<circle cx="671.8" cy="84.3" r="1.5" class="xychart-grid"/>
<circle cx="690.5" cy="84.3" r="1.5" class="xychart-grid"/>
<circle cx="709.3" cy="84.3" r="1.5" class="xychart-grid"/>
<circle cx="728" cy="84.3" r="1.5" class="xychart-grid"/>
<circle cx="128" cy="103.6" r="1.5" class="xychart-grid"/>
<circle cx="146.8" cy="103.6" r="1.5" class="xychart-grid"/>
<circle cx="165.5" cy="103.6" r="1.5" class="xychart-grid"/>
<circle cx="184.3" cy="103.6" r="1.5" class="xychart-grid"/>
<circle cx="203" cy="103.6" r="1.5" class="xychart-grid"/>
<circle cx="221.8" cy="103.6" r="1.5" class="xychart-grid"/>
<circle cx="240.5" cy="103.6" r="1.5" class="xychart-grid"/>
<circle cx="259.3" cy="103.6" r="1.5" class="xychart-grid"/>
<circle cx="278" cy="103.6" r="1.5" class="xychart-grid"/>
<circle cx="296.8" cy="103.6" r="1.5" class="xychart-grid"/>
<circle cx="315.5" cy="103.6" r="1.5" class="xychart-grid"/>
<circle cx="334.3" cy="103.6" r="1.5" class="xychart-grid"/>
<circle cx="353" cy="103.6" r="1.5" class="xychart-grid"/>
<circle cx="371.8" cy="103.6" r="1.5" class="xychart-grid"/>
<circle cx="390.5" cy="103.6" r="1.5" class="xychart-grid"/>
<circle cx="409.3" cy="103.6" r="1.5" class="xychart-grid"/>
<circle cx="428" cy="103.6" r="1.5" class="xychart-grid"/>
<circle cx="446.8" cy="103.6" r="1.5" class="xychart-grid"/>
<circle cx="465.5" cy="103.6" r="1.5" class="xychart-grid"/>
<circle cx="484.3" cy="103.6" r="1.5" class="xychart-grid"/>
<circle cx="503" cy="103.6" r="1.5" class="xychart-grid"/>
<circle cx="521.8" cy="103.6" r="1.5" class="xychart-grid"/>
<circle cx="540.5" cy="103.6" r="1.5" class="xychart-grid"/>
<circle cx="559.3" cy="103.6" r="1.5" class="xychart-grid"/>
<circle cx="578" cy="103.6" r="1.5" class="xychart-grid"/>
<circle cx="596.8" cy="103.6" r="1.5" class="xychart-grid"/>
<circle cx="615.5" cy="103.6" r="1.5" class="xychart-grid"/>
<circle cx="634.3" cy="103.6" r="1.5" class="xychart-grid"/>
<circle cx="653" cy="103.6" r="1.5" class="xychart-grid"/>
<circle cx="671.8" cy="103.6" r="1.5" class="xychart-grid"/>
<circle cx="690.5" cy="103.6" r="1.5" class="xychart-grid"/>
<circle cx="709.3" cy="103.6" r="1.5" class="xychart-grid"/>
<circle cx="728" cy="103.6" r="1.5" class="xychart-grid"/>
<circle cx="128" cy="122.9" r="1.5" class="xychart-grid"/>
<circle cx="146.8" cy="122.9" r="1.5" class="xychart-grid"/>
<circle cx="165.5" cy="122.9" r="1.5" class="xychart-grid"/>
<circle cx="184.3" cy="122.9" r="1.5" class="xychart-grid"/>
<circle cx="203" cy="122.9" r="1.5" class="xychart-grid"/>
<circle cx="221.8" cy="122.9" r="1.5" class="xychart-grid"/>
<circle cx="240.5" cy="122.9" r="1.5" class="xychart-grid"/>
<circle cx="259.3" cy="122.9" r="1.5" class="xychart-grid"/>
<circle cx="278" cy="122.9" r="1.5" class="xychart-grid"/>
<circle cx="296.8" cy="122.9" r="1.5" class="xychart-grid"/>
<circle cx="315.5" cy="122.9" r="1.5" class="xychart-grid"/>
<circle cx="334.3" cy="122.9" r="1.5" class="xychart-grid"/>
<circle cx="353" cy="122.9" r="1.5" class="xychart-grid"/>
<circle cx="371.8" cy="122.9" r="1.5" class="xychart-grid"/>
<circle cx="390.5" cy="122.9" r="1.5" class="xychart-grid"/>
<circle cx="409.3" cy="122.9" r="1.5" class="xychart-grid"/>
<circle cx="428" cy="122.9" r="1.5" class="xychart-grid"/>
<circle cx="446.8" cy="122.9" r="1.5" class="xychart-grid"/>
<circle cx="465.5" cy="122.9" r="1.5" class="xychart-grid"/>
<circle cx="484.3" cy="122.9" r="1.5" class="xychart-grid"/>
<circle cx="503" cy="122.9" r="1.5" class="xychart-grid"/>
<circle cx="521.8" cy="122.9" r="1.5" class="xychart-grid"/>
<circle cx="540.5" cy="122.9" r="1.5" class="xychart-grid"/>
<circle cx="559.3" cy="122.9" r="1.5" class="xychart-grid"/>
<circle cx="578" cy="122.9" r="1.5" class="xychart-grid"/>
<circle cx="596.8" cy="122.9" r="1.5" class="xychart-grid"/>
<circle cx="615.5" cy="122.9" r="1.5" class="xychart-grid"/>
<circle cx="634.3" cy="122.9" r="1.5" class="xychart-grid"/>
<circle cx="653" cy="122.9" r="1.5" class="xychart-grid"/>
<circle cx="671.8" cy="122.9" r="1.5" class="xychart-grid"/>
<circle cx="690.5" cy="122.9" r="1.5" class="xychart-grid"/>
<circle cx="709.3" cy="122.9" r="1.5" class="xychart-grid"/>
<circle cx="728" cy="122.9" r="1.5" class="xychart-grid"/>
<circle cx="128" cy="142.2" r="1.5" class="xychart-grid"/>
<circle cx="146.8" cy="142.2" r="1.5" class="xychart-grid"/>
<circle cx="165.5" cy="142.2" r="1.5" class="xychart-grid"/>
<circle cx="184.3" cy="142.2" r="1.5" class="xychart-grid"/>
<circle cx="203" cy="142.2" r="1.5" class="xychart-grid"/>
<circle cx="221.8" cy="142.2" r="1.5" class="xychart-grid"/>
<circle cx="240.5" cy="142.2" r="1.5" class="xychart-grid"/>
<circle cx="259.3" cy="142.2" r="1.5" class="xychart-grid"/>
<circle cx="278" cy="142.2" r="1.5" class="xychart-grid"/>
<circle cx="296.8" cy="142.2" r="1.5" class="xychart-grid"/>
<circle cx="315.5" cy="142.2" r="1.5" class="xychart-grid"/>
<circle cx="334.3" cy="142.2" r="1.5" class="xychart-grid"/>
<circle cx="353" cy="142.2" r="1.5" class="xychart-grid"/>
<circle cx="371.8" cy="142.2" r="1.5" class="xychart-grid"/>
<circle cx="390.5" cy="142.2" r="1.5" class="xychart-grid"/>
<circle cx="409.3" cy="142.2" r="1.5" class="xychart-grid"/>
<circle cx="428" cy="142.2" r="1.5" class="xychart-grid"/>
<circle cx="446.8" cy="142.2" r="1.5" class="xychart-grid"/>
<circle cx="465.5" cy="142.2" r="1.5" class="xychart-grid"/>
<circle cx="484.3" cy="142.2" r="1.5" class="xychart-grid"/>
<circle cx="503" cy="142.2" r="1.5" class="xychart-grid"/>
<circle cx="521.8" cy="142.2" r="1.5" class="xychart-grid"/>
<circle cx="540.5" cy="142.2" r="1.5" class="xychart-grid"/>
<circle cx="559.3" cy="142.2" r="1.5" class="xychart-grid"/>
<circle cx="578" cy="142.2" r="1.5" class="xychart-grid"/>
<circle cx="596.8" cy="142.2" r="1.5" class="xychart-grid"/>
<circle cx="615.5" cy="142.2" r="1.5" class="xychart-grid"/>
<circle cx="634.3" cy="142.2" r="1.5" class="xychart-grid"/>
<circle cx="653" cy="142.2" r="1.5" class="xychart-grid"/>
<circle cx="671.8" cy="142.2" r="1.5" class="xychart-grid"/>
<circle cx="690.5" cy="142.2" r="1.5" class="xychart-grid"/>
<circle cx="709.3" cy="142.2" r="1.5" class="xychart-grid"/>
<circle cx="728" cy="142.2" r="1.5" class="xychart-grid"/>
<circle cx="128" cy="161.5" r="1.5" class="xychart-grid"/>
<circle cx="146.8" cy="161.5" r="1.5" class="xychart-grid"/>
<circle cx="165.5" cy="161.5" r="1.5" class="xychart-grid"/>
<circle cx="184.3" cy="161.5" r="1.5" class="xychart-grid"/>
<circle cx="203" cy="161.5" r="1.5" class="xychart-grid"/>
<circle cx="221.8" cy="161.5" r="1.5" class="xychart-grid"/>
<circle cx="240.5" cy="161.5" r="1.5" class="xychart-grid"/>
<circle cx="259.3" cy="161.5" r="1.5" class="xychart-grid"/>
<circle cx="278" cy="161.5" r="1.5" class="xychart-grid"/>
<circle cx="296.8" cy="161.5" r="1.5" class="xychart-grid"/>
<circle cx="315.5" cy="161.5" r="1.5" class="xychart-grid"/>
<circle cx="334.3" cy="161.5" r="1.5" class="xychart-grid"/>
<circle cx="353" cy="161.5" r="1.5" class="xychart-grid"/>
<circle cx="371.8" cy="161.5" r="1.5" class="xychart-grid"/>
<circle cx="390.5" cy="161.5" r="1.5" class="xychart-grid"/>
<circle cx="409.3" cy="161.5" r="1.5" class="xychart-grid"/>
<circle cx="428" cy="161.5" r="1.5" class="xychart-grid"/>
<circle cx="446.8" cy="161.5" r="1.5" class="xychart-grid"/>
<circle cx="465.5" cy="161.5" r="1.5" class="xychart-grid"/>
<circle cx="484.3" cy="161.5" r="1.5" class="xychart-grid"/>
<circle cx="503" cy="161.5" r="1.5" class="xychart-grid"/>
<circle cx="521.8" cy="161.5" r="1.5" class="xychart-grid"/>
<circle cx="540.5" cy="161.5" r="1.5" class="xychart-grid"/>
<circle cx="559.3" cy="161.5" r="1.5" class="xychart-grid"/>
<circle cx="578" cy="161.5" r="1.5" class="xychart-grid"/>
<circle cx="596.8" cy="161.5" r="1.5" class="xychart-grid"/>
<circle cx="615.5" cy="161.5" r="1.5" class="xychart-grid"/>
<circle cx="634.3" cy="161.5" r="1.5" class="xychart-grid"/>
<circle cx="653" cy="161.5" r="1.5" class="xychart-grid"/>
<circle cx="671.8" cy="161.5" r="1.5" class="xychart-grid"/>
<circle cx="690.5" cy="161.5" r="1.5" class="xychart-grid"/>
<circle cx="709.3" cy="161.5" r="1.5" class="xychart-grid"/>
<circle cx="728" cy="161.5" r="1.5" class="xychart-grid"/>
<circle cx="128" cy="180.9" r="1.5" class="xychart-grid"/>
<circle cx="146.8" cy="180.9" r="1.5" class="xychart-grid"/>
<circle cx="165.5" cy="180.9" r="1.5" class="xychart-grid"/>
<circle cx="184.3" cy="180.9" r="1.5" class="xychart-grid"/>
<circle cx="203" cy="180.9" r="1.5" class="xychart-grid"/>
<circle cx="221.8" cy="180.9" r="1.5" class="xychart-grid"/>
<circle cx="240.5" cy="180.9" r="1.5" class="xychart-grid"/>
<circle cx="259.3" cy="180.9" r="1.5" class="xychart-grid"/>
<circle cx="278" cy="180.9" r="1.5" class="xychart-grid"/>
<circle cx="296.8" cy="180.9" r="1.5" class="xychart-grid"/>
<circle cx="315.5" cy="180.9" r="1.5" class="xychart-grid"/>
<circle cx="334.3" cy="180.9" r="1.5" class="xychart-grid"/>
<circle cx="353" cy="180.9" r="1.5" class="xychart-grid"/>
<circle cx="371.8" cy="180.9" r="1.5" class="xychart-grid"/>
<circle cx="390.5" cy="180.9" r="1.5" class="xychart-grid"/>
<circle cx="409.3" cy="180.9" r="1.5" class="xychart-grid"/>
<circle cx="428" cy="180.9" r="1.5" class="xychart-grid"/>
<circle cx="446.8" cy="180.9" r="1.5" class="xychart-grid"/>
<circle cx="465.5" cy="180.9" r="1.5" class="xychart-grid"/>
<circle cx="484.3" cy="180.9" r="1.5" class="xychart-grid"/>
<circle cx="503" cy="180.9" r="1.5" class="xychart-grid"/>
<circle cx="521.8" cy="180.9" r="1.5" class="xychart-grid"/>
<circle cx="540.5" cy="180.9" r="1.5" class="xychart-grid"/>
<circle cx="559.3" cy="180.9" r="1.5" class="xychart-grid"/>
<circle cx="578" cy="180.9" r="1.5" class="xychart-grid"/>
<circle cx="596.8" cy="180.9" r="1.5" class="xychart-grid"/>
<circle cx="615.5" cy="180.9" r="1.5" class="xychart-grid"/>
<circle cx="634.3" cy="180.9" r="1.5" class="xychart-grid"/>
<circle cx="653" cy="180.9" r="1.5" class="xychart-grid"/>
<circle cx="671.8" cy="180.9" r="1.5" class="xychart-grid"/>
<circle cx="690.5" cy="180.9" r="1.5" class="xychart-grid"/>
<circle cx="709.3" cy="180.9" r="1.5" class="xychart-grid"/>
<circle cx="728" cy="180.9" r="1.5" class="xychart-grid"/>
<circle cx="128" cy="200.2" r="1.5" class="xychart-grid"/>
<circle cx="146.8" cy="200.2" r="1.5" class="xychart-grid"/>
<circle cx="165.5" cy="200.2" r="1.5" class="xychart-grid"/>
<circle cx="184.3" cy="200.2" r="1.5" class="xychart-grid"/>
<circle cx="203" cy="200.2" r="1.5" class="xychart-grid"/>
<circle cx="221.8" cy="200.2" r="1.5" class="xychart-grid"/>
<circle cx="240.5" cy="200.2" r="1.5" class="xychart-grid"/>
<circle cx="259.3" cy="200.2" r="1.5" class="xychart-grid"/>
<circle cx="278" cy="200.2" r="1.5" class="xychart-grid"/>
<circle cx="296.8" cy="200.2" r="1.5" class="xychart-grid"/>
<circle cx="315.5" cy="200.2" r="1.5" class="xychart-grid"/>
<circle cx="334.3" cy="200.2" r="1.5" class="xychart-grid"/>
<circle cx="353" cy="200.2" r="1.5" class="xychart-grid"/>
<circle cx="371.8" cy="200.2" r="1.5" class="xychart-grid"/>
<circle cx="390.5" cy="200.2" r="1.5" class="xychart-grid"/>
<circle cx="409.3" cy="200.2" r="1.5" class="xychart-grid"/>
<circle cx="428" cy="200.2" r="1.5" class="xychart-grid"/>
<circle cx="446.8" cy="200.2" r="1.5" class="xychart-grid"/>
<circle cx="465.5" cy="200.2" r="1.5" class="xychart-grid"/>
<circle cx="484.3" cy="200.2" r="1.5" class="xychart-grid"/>
<circle cx="503" cy="200.2" r="1.5" class="xychart-grid"/>
<circle cx="521.8" cy="200.2" r="1.5" class="xychart-grid"/>
<circle cx="540.5" cy="200.2" r="1.5" class="xychart-grid"/>
<circle cx="559.3" cy="200.2" r="1.5" class="xychart-grid"/>
<circle cx="578" cy="200.2" r="1.5" class="xychart-grid"/>
<circle cx="596.8" cy="200.2" r="1.5" class="xychart-grid"/>
<circle cx="615.5" cy="200.2" r="1.5" class="xychart-grid"/>
<circle cx="634.3" cy="200.2" r="1.5" class="xychart-grid"/>
<circle cx="653" cy="200.2" r="1.5" class="xychart-grid"/>
<circle cx="671.8" cy="200.2" r="1.5" class="xychart-grid"/>
<circle cx="690.5" cy="200.2" r="1.5" class="xychart-grid"/>
<circle cx="709.3" cy="200.2" r="1.5" class="xychart-grid"/>
<circle cx="728" cy="200.2" r="1.5" class="xychart-grid"/>
<circle cx="128" cy="219.5" r="1.5" class="xychart-grid"/>
<circle cx="146.8" cy="219.5" r="1.5" class="xychart-grid"/>
<circle cx="165.5" cy="219.5" r="1.5" class="xychart-grid"/>
<circle cx="184.3" cy="219.5" r="1.5" class="xychart-grid"/>
<circle cx="203" cy="219.5" r="1.5" class="xychart-grid"/>
<circle cx="221.8" cy="219.5" r="1.5" class="xychart-grid"/>
<circle cx="240.5" cy="219.5" r="1.5" class="xychart-grid"/>
<circle cx="259.3" cy="219.5" r="1.5" class="xychart-grid"/>
<circle cx="278" cy="219.5" r="1.5" class="xychart-grid"/>
<circle cx="296.8" cy="219.5" r="1.5" class="xychart-grid"/>
<circle cx="315.5" cy="219.5" r="1.5" class="xychart-grid"/>
<circle cx="334.3" cy="219.5" r="1.5" class="xychart-grid"/>
<circle cx="353" cy="219.5" r="1.5" class="xychart-grid"/>
<circle cx="371.8" cy="219.5" r="1.5" class="xychart-grid"/>
<circle cx="390.5" cy="219.5" r="1.5" class="xychart-grid"/>
<circle cx="409.3" cy="219.5" r="1.5" class="xychart-grid"/>
<circle cx="428" cy="219.5" r="1.5" class="xychart-grid"/>
<circle cx="446.8" cy="219.5" r="1.5" class="xychart-grid"/>
<circle cx="465.5" cy="219.5" r="1.5" class="xychart-grid"/>
<circle cx="484.3" cy="219.5" r="1.5" class="xychart-grid"/>
<circle cx="503" cy="219.5" r="1.5" class="xychart-grid"/>
<circle cx="521.8" cy="219.5" r="1.5" class="xychart-grid"/>
<circle cx="540.5" cy="219.5" r="1.5" class="xychart-grid"/>
<circle cx="559.3" cy="219.5" r="1.5" class="xychart-grid"/>
<circle cx="578" cy="219.5" r="1.5" class="xychart-grid"/>
<circle cx="596.8" cy="219.5" r="1.5" class="xychart-grid"/>
<circle cx="615.5" cy="219.5" r="1.5" class="xychart-grid"/>
<circle cx="634.3" cy="219.5" r="1.5" class="xychart-grid"/>
<circle cx="653" cy="219.5" r="1.5" class="xychart-grid"/>
<circle cx="671.8" cy="219.5" r="1.5" class="xychart-grid"/>
<circle cx="690.5" cy="219.5" r="1.5" class="xychart-grid"/>
<circle cx="709.3" cy="219.5" r="1.5" class="xychart-grid"/>
<circle cx="728" cy="219.5" r="1.5" class="xychart-grid"/>
<circle cx="128" cy="238.8" r="1.5" class="xychart-grid"/>
<circle cx="146.8" cy="238.8" r="1.5" class="xychart-grid"/>
<circle cx="165.5" cy="238.8" r="1.5" class="xychart-grid"/>
<circle cx="184.3" cy="238.8" r="1.5" class="xychart-grid"/>
<circle cx="203" cy="238.8" r="1.5" class="xychart-grid"/>
<circle cx="221.8" cy="238.8" r="1.5" class="xychart-grid"/>
<circle cx="240.5" cy="238.8" r="1.5" class="xychart-grid"/>
<circle cx="259.3" cy="238.8" r="1.5" class="xychart-grid"/>
<circle cx="278" cy="238.8" r="1.5" class="xychart-grid"/>
<circle cx="296.8" cy="238.8" r="1.5" class="xychart-grid"/>
<circle cx="315.5" cy="238.8" r="1.5" class="xychart-grid"/>
<circle cx="334.3" cy="238.8" r="1.5" class="xychart-grid"/>
<circle cx="353" cy="238.8" r="1.5" class="xychart-grid"/>
<circle cx="371.8" cy="238.8" r="1.5" class="xychart-grid"/>
<circle cx="390.5" cy="238.8" r="1.5" class="xychart-grid"/>
<circle cx="409.3" cy="238.8" r="1.5" class="xychart-grid"/>
<circle cx="428" cy="238.8" r="1.5" class="xychart-grid"/>
<circle cx="446.8" cy="238.8" r="1.5" class="xychart-grid"/>
<circle cx="465.5" cy="238.8" r="1.5" class="xychart-grid"/>
<circle cx="484.3" cy="238.8" r="1.5" class="xychart-grid"/>
<circle cx="503" cy="238.8" r="1.5" class="xychart-grid"/>
<circle cx="521.8" cy="238.8" r="1.5" class="xychart-grid"/>
<circle cx="540.5" cy="238.8" r="1.5" class="xychart-grid"/>
<circle cx="559.3" cy="238.8" r="1.5" class="xychart-grid"/>
<circle cx="578" cy="238.8" r="1.5" class="xychart-grid"/>
<circle cx="596.8" cy="238.8" r="1.5" class="xychart-grid"/>
<circle cx="615.5" cy="238.8" r="1.5" class="xychart-grid"/>
<circle cx="634.3" cy="238.8" r="1.5" class="xychart-grid"/>
<circle cx="653" cy="238.8" r="1.5" class="xychart-grid"/>
<circle cx="671.8" cy="238.8" r="1.5" class="xychart-grid"/>
<circle cx="690.5" cy="238.8" r="1.5" class="xychart-grid"/>
<circle cx="709.3" cy="238.8" r="1.5" class="xychart-grid"/>
<circle cx="728" cy="238.8" r="1.5" class="xychart-grid"/>
<circle cx="128" cy="258.1" r="1.5" class="xychart-grid"/>
<circle cx="146.8" cy="258.1" r="1.5" class="xychart-grid"/>
<circle cx="165.5" cy="258.1" r="1.5" class="xychart-grid"/>
<circle cx="184.3" cy="258.1" r="1.5" class="xychart-grid"/>
<circle cx="203" cy="258.1" r="1.5" class="xychart-grid"/>
<circle cx="221.8" cy="258.1" r="1.5" class="xychart-grid"/>
<circle cx="240.5" cy="258.1" r="1.5" class="xychart-grid"/>
<circle cx="259.3" cy="258.1" r="1.5" class="xychart-grid"/>
<circle cx="278" cy="258.1" r="1.5" class="xychart-grid"/>
<circle cx="296.8" cy="258.1" r="1.5" class="xychart-grid"/>
<circle cx="315.5" cy="258.1" r="1.5" class="xychart-grid"/>
<circle cx="334.3" cy="258.1" r="1.5" class="xychart-grid"/>
<circle cx="353" cy="258.1" r="1.5" class="xychart-grid"/>
<circle cx="371.8" cy="258.1" r="1.5" class="xychart-grid"/>
<circle cx="390.5" cy="258.1" r="1.5" class="xychart-grid"/>
<circle cx="409.3" cy="258.1" r="1.5" class="xychart-grid"/>
<circle cx="428" cy="258.1" r="1.5" class="xychart-grid"/>
<circle cx="446.8" cy="258.1" r="1.5" class="xychart-grid"/>
<circle cx="465.5" cy="258.1" r="1.5" class="xychart-grid"/>
<circle cx="484.3" cy="258.1" r="1.5" class="xychart-grid"/>
<circle cx="503" cy="258.1" r="1.5" class="xychart-grid"/>
<circle cx="521.8" cy="258.1" r="1.5" class="xychart-grid"/>
<circle cx="540.5" cy="258.1" r="1.5" class="xychart-grid"/>
<circle cx="559.3" cy="258.1" r="1.5" class="xychart-grid"/>
<circle cx="578" cy="258.1" r="1.5" class="xychart-grid"/>
<circle cx="596.8" cy="258.1" r="1.5" class="xychart-grid"/>
<circle cx="615.5" cy="258.1" r="1.5" class="xychart-grid"/>
<circle cx="634.3" cy="258.1" r="1.5" class="xychart-grid"/>
<circle cx="653" cy="258.1" r="1.5" class="xychart-grid"/>
<circle cx="671.8" cy="258.1" r="1.5" class="xychart-grid"/>
<circle cx="690.5" cy="258.1" r="1.5" class="xychart-grid"/>
<circle cx="709.3" cy="258.1" r="1.5" class="xychart-grid"/>
<circle cx="728" cy="258.1" r="1.5" class="xychart-grid"/>
<circle cx="128" cy="277.5" r="1.5" class="xychart-grid"/>
<circle cx="146.8" cy="277.5" r="1.5" class="xychart-grid"/>
<circle cx="165.5" cy="277.5" r="1.5" class="xychart-grid"/>
<circle cx="184.3" cy="277.5" r="1.5" class="xychart-grid"/>
<circle cx="203" cy="277.5" r="1.5" class="xychart-grid"/>
<circle cx="221.8" cy="277.5" r="1.5" class="xychart-grid"/>
<circle cx="240.5" cy="277.5" r="1.5" class="xychart-grid"/>
<circle cx="259.3" cy="277.5" r="1.5" class="xychart-grid"/>
<circle cx="278" cy="277.5" r="1.5" class="xychart-grid"/>
<circle cx="296.8" cy="277.5" r="1.5" class="xychart-grid"/>
<circle cx="315.5" cy="277.5" r="1.5" class="xychart-grid"/>
<circle cx="334.3" cy="277.5" r="1.5" class="xychart-grid"/>
<circle cx="353" cy="277.5" r="1.5" class="xychart-grid"/>
<circle cx="371.8" cy="277.5" r="1.5" class="xychart-grid"/>
<circle cx="390.5" cy="277.5" r="1.5" class="xychart-grid"/>
<circle cx="409.3" cy="277.5" r="1.5" class="xychart-grid"/>
<circle cx="428" cy="277.5" r="1.5" class="xychart-grid"/>
<circle cx="446.8" cy="277.5" r="1.5" class="xychart-grid"/>
<circle cx="465.5" cy="277.5" r="1.5" class="xychart-grid"/>
<circle cx="484.3" cy="277.5" r="1.5" class="xychart-grid"/>
<circle cx="503" cy="277.5" r="1.5" class="xychart-grid"/>
<circle cx="521.8" cy="277.5" r="1.5" class="xychart-grid"/>
<circle cx="540.5" cy="277.5" r="1.5" class="xychart-grid"/>
<circle cx="559.3" cy="277.5" r="1.5" class="xychart-grid"/>
<circle cx="578" cy="277.5" r="1.5" class="xychart-grid"/>
<circle cx="596.8" cy="277.5" r="1.5" class="xychart-grid"/>
<circle cx="615.5" cy="277.5" r="1.5" class="xychart-grid"/>
<circle cx="634.3" cy="277.5" r="1.5" class="xychart-grid"/>
<circle cx="653" cy="277.5" r="1.5" class="xychart-grid"/>
<circle cx="671.8" cy="277.5" r="1.5" class="xychart-grid"/>
<circle cx="690.5" cy="277.5" r="1.5" class="xychart-grid"/>
<circle cx="709.3" cy="277.5" r="1.5" class="xychart-grid"/>
<circle cx="728" cy="277.5" r="1.5" class="xychart-grid"/>
<circle cx="128" cy="296.8" r="1.5" class="xychart-grid"/>
<circle cx="146.8" cy="296.8" r="1.5" class="xychart-grid"/>
<circle cx="165.5" cy="296.8" r="1.5" class="xychart-grid"/>
<circle cx="184.3" cy="296.8" r="1.5" class="xychart-grid"/>
<circle cx="203" cy="296.8" r="1.5" class="xychart-grid"/>
<circle cx="221.8" cy="296.8" r="1.5" class="xychart-grid"/>
<circle cx="240.5" cy="296.8" r="1.5" class="xychart-grid"/>
<circle cx="259.3" cy="296.8" r="1.5" class="xychart-grid"/>
<circle cx="278" cy="296.8" r="1.5" class="xychart-grid"/>
<circle cx="296.8" cy="296.8" r="1.5" class="xychart-grid"/>
<circle cx="315.5" cy="296.8" r="1.5" class="xychart-grid"/>
<circle cx="334.3" cy="296.8" r="1.5" class="xychart-grid"/>
<circle cx="353" cy="296.8" r="1.5" class="xychart-grid"/>
<circle cx="371.8" cy="296.8" r="1.5" class="xychart-grid"/>
<circle cx="390.5" cy="296.8" r="1.5" class="xychart-grid"/>
<circle cx="409.3" cy="296.8" r="1.5" class="xychart-grid"/>
<circle cx="428" cy="296.8" r="1.5" class="xychart-grid"/>
<circle cx="446.8" cy="296.8" r="1.5" class="xychart-grid"/>
<circle cx="465.5" cy="296.8" r="1.5" class="xychart-grid"/>
<circle cx="484.3" cy="296.8" r="1.5" class="xychart-grid"/>
<circle cx="503" cy="296.8" r="1.5" class="xychart-grid"/>
<circle cx="521.8" cy="296.8" r="1.5" class="xychart-grid"/>
<circle cx="540.5" cy="296.8" r="1.5" class="xychart-grid"/>
<circle cx="559.3" cy="296.8" r="1.5" class="xychart-grid"/>
<circle cx="578" cy="296.8" r="1.5" class="xychart-grid"/>
<circle cx="596.8" cy="296.8" r="1.5" class="xychart-grid"/>
<circle cx="615.5" cy="296.8" r="1.5" class="xychart-grid"/>
<circle cx="634.3" cy="296.8" r="1.5" class="xychart-grid"/>
<circle cx="653" cy="296.8" r="1.5" class="xychart-grid"/>
<circle cx="671.8" cy="296.8" r="1.5" class="xychart-grid"/>
<circle cx="690.5" cy="296.8" r="1.5" class="xychart-grid"/>
<circle cx="709.3" cy="296.8" r="1.5" class="xychart-grid"/>
<circle cx="728" cy="296.8" r="1.5" class="xychart-grid"/>
<circle cx="128" cy="316.1" r="1.5" class="xychart-grid"/>
<circle cx="146.8" cy="316.1" r="1.5" class="xychart-grid"/>
<circle cx="165.5" cy="316.1" r="1.5" class="xychart-grid"/>
<circle cx="184.3" cy="316.1" r="1.5" class="xychart-grid"/>
<circle cx="203" cy="316.1" r="1.5" class="xychart-grid"/>
<circle cx="221.8" cy="316.1" r="1.5" class="xychart-grid"/>
<circle cx="240.5" cy="316.1" r="1.5" class="xychart-grid"/>
<circle cx="259.3" cy="316.1" r="1.5" class="xychart-grid"/>
<circle cx="278" cy="316.1" r="1.5" class="xychart-grid"/>
<circle cx="296.8" cy="316.1" r="1.5" class="xychart-grid"/>
<circle cx="315.5" cy="316.1" r="1.5" class="xychart-grid"/>
<circle cx="334.3" cy="316.1" r="1.5" class="xychart-grid"/>
<circle cx="353" cy="316.1" r="1.5" class="xychart-grid"/>
<circle cx="371.8" cy="316.1" r="1.5" class="xychart-grid"/>
<circle cx="390.5" cy="316.1" r="1.5" class="xychart-grid"/>
<circle cx="409.3" cy="316.1" r="1.5" class="xychart-grid"/>
<circle cx="428" cy="316.1" r="1.5" class="xychart-grid"/>
<circle cx="446.8" cy="316.1" r="1.5" class="xychart-grid"/>
<circle cx="465.5" cy="316.1" r="1.5" class="xychart-grid"/>
<circle cx="484.3" cy="316.1" r="1.5" class="xychart-grid"/>
<circle cx="503" cy="316.1" r="1.5" class="xychart-grid"/>
<circle cx="521.8" cy="316.1" r="1.5" class="xychart-grid"/>
<circle cx="540.5" cy="316.1" r="1.5" class="xychart-grid"/>
<circle cx="559.3" cy="316.1" r="1.5" class="xychart-grid"/>
<circle cx="578" cy="316.1" r="1.5" class="xychart-grid"/>
<circle cx="596.8" cy="316.1" r="1.5" class="xychart-grid"/>
<circle cx="615.5" cy="316.1" r="1.5" class="xychart-grid"/>
<circle cx="634.3" cy="316.1" r="1.5" class="xychart-grid"/>
<circle cx="653" cy="316.1" r="1.5" class="xychart-grid"/>
<circle cx="671.8" cy="316.1" r="1.5" class="xychart-grid"/>
<circle cx="690.5" cy="316.1" r="1.5" class="xychart-grid"/>
<circle cx="709.3" cy="316.1" r="1.5" class="xychart-grid"/>
<circle cx="728" cy="316.1" r="1.5" class="xychart-grid"/>
<circle cx="128" cy="335.4" r="1.5" class="xychart-grid"/>
<circle cx="146.8" cy="335.4" r="1.5" class="xychart-grid"/>
<circle cx="165.5" cy="335.4" r="1.5" class="xychart-grid"/>
<circle cx="184.3" cy="335.4" r="1.5" class="xychart-grid"/>
<circle cx="203" cy="335.4" r="1.5" class="xychart-grid"/>
<circle cx="221.8" cy="335.4" r="1.5" class="xychart-grid"/>
<circle cx="240.5" cy="335.4" r="1.5" class="xychart-grid"/>
<circle cx="259.3" cy="335.4" r="1.5" class="xychart-grid"/>
<circle cx="278" cy="335.4" r="1.5" class="xychart-grid"/>
<circle cx="296.8" cy="335.4" r="1.5" class="xychart-grid"/>
<circle cx="315.5" cy="335.4" r="1.5" class="xychart-grid"/>
<circle cx="334.3" cy="335.4" r="1.5" class="xychart-grid"/>
<circle cx="353" cy="335.4" r="1.5" class="xychart-grid"/>
<circle cx="371.8" cy="335.4" r="1.5" class="xychart-grid"/>
<circle cx="390.5" cy="335.4" r="1.5" class="xychart-grid"/>
<circle cx="409.3" cy="335.4" r="1.5" class="xychart-grid"/>
<circle cx="428" cy="335.4" r="1.5" class="xychart-grid"/>
<circle cx="446.8" cy="335.4" r="1.5" class="xychart-grid"/>
<circle cx="465.5" cy="335.4" r="1.5" class="xychart-grid"/>
<circle cx="484.3" cy="335.4" r="1.5" class="xychart-grid"/>
<circle cx="503" cy="335.4" r="1.5" class="xychart-grid"/>
<circle cx="521.8" cy="335.4" r="1.5" class="xychart-grid"/>
<circle cx="540.5" cy="335.4" r="1.5" class="xychart-grid"/>
<circle cx="559.3" cy="335.4" r="1.5" class="xychart-grid"/>
<circle cx="578" cy="335.4" r="1.5" class="xychart-grid"/>
<circle cx="596.8" cy="335.4" r="1.5" class="xychart-grid"/>
<circle cx="615.5" cy="335.4" r="1.5" class="xychart-grid"/>
<circle cx="634.3" cy="335.4" r="1.5" class="xychart-grid"/>
<circle cx="653" cy="335.4" r="1.5" class="xychart-grid"/>
<circle cx="671.8" cy="335.4" r="1.5" class="xychart-grid"/>
<circle cx="690.5" cy="335.4" r="1.5" class="xychart-grid"/>
<circle cx="709.3" cy="335.4" r="1.5" class="xychart-grid"/>
<circle cx="728" cy="335.4" r="1.5" class="xychart-grid"/>
<circle cx="128" cy="354.7" r="1.5" class="xychart-grid"/>
<circle cx="146.8" cy="354.7" r="1.5" class="xychart-grid"/>
<circle cx="165.5" cy="354.7" r="1.5" class="xychart-grid"/>
<circle cx="184.3" cy="354.7" r="1.5" class="xychart-grid"/>
<circle cx="203" cy="354.7" r="1.5" class="xychart-grid"/>
<circle cx="221.8" cy="354.7" r="1.5" class="xychart-grid"/>
<circle cx="240.5" cy="354.7" r="1.5" class="xychart-grid"/>
<circle cx="259.3" cy="354.7" r="1.5" class="xychart-grid"/>
<circle cx="278" cy="354.7" r="1.5" class="xychart-grid"/>
<circle cx="296.8" cy="354.7" r="1.5" class="xychart-grid"/>
<circle cx="315.5" cy="354.7" r="1.5" class="xychart-grid"/>
<circle cx="334.3" cy="354.7" r="1.5" class="xychart-grid"/>
<circle cx="353" cy="354.7" r="1.5" class="xychart-grid"/>
<circle cx="371.8" cy="354.7" r="1.5" class="xychart-grid"/>
<circle cx="390.5" cy="354.7" r="1.5" class="xychart-grid"/>
<circle cx="409.3" cy="354.7" r="1.5" class="xychart-grid"/>
<circle cx="428" cy="354.7" r="1.5" class="xychart-grid"/>
<circle cx="446.8" cy="354.7" r="1.5" class="xychart-grid"/>
<circle cx="465.5" cy="354.7" r="1.5" class="xychart-grid"/>
<circle cx="484.3" cy="354.7" r="1.5" class="xychart-grid"/>
<circle cx="503" cy="354.7" r="1.5" class="xychart-grid"/>
<circle cx="521.8" cy="354.7" r="1.5" class="xychart-grid"/>
<circle cx="540.5" cy="354.7" r="1.5" class="xychart-grid"/>
<circle cx="559.3" cy="354.7" r="1.5" class="xychart-grid"/>
<circle cx="578" cy="354.7" r="1.5" class="xychart-grid"/>
<circle cx="596.8" cy="354.7" r="1.5" class="xychart-grid"/>
<circle cx="615.5" cy="354.7" r="1.5" class="xychart-grid"/>
<circle cx="634.3" cy="354.7" r="1.5" class="xychart-grid"/>
<circle cx="653" cy="354.7" r="1.5" class="xychart-grid"/>
<circle cx="671.8" cy="354.7" r="1.5" class="xychart-grid"/>
<circle cx="690.5" cy="354.7" r="1.5" class="xychart-grid"/>
<circle cx="709.3" cy="354.7" r="1.5" class="xychart-grid"/>
<circle cx="728" cy="354.7" r="1.5" class="xychart-grid"/>
<circle cx="128" cy="374" r="1.5" class="xychart-grid"/>
<circle cx="146.8" cy="374" r="1.5" class="xychart-grid"/>
<circle cx="165.5" cy="374" r="1.5" class="xychart-grid"/>
<circle cx="184.3" cy="374" r="1.5" class="xychart-grid"/>
<circle cx="203" cy="374" r="1.5" class="xychart-grid"/>
<circle cx="221.8" cy="374" r="1.5" class="xychart-grid"/>
<circle cx="240.5" cy="374" r="1.5" class="xychart-grid"/>
<circle cx="259.3" cy="374" r="1.5" class="xychart-grid"/>
<circle cx="278" cy="374" r="1.5" class="xychart-grid"/>
<circle cx="296.8" cy="374" r="1.5" class="xychart-grid"/>
<circle cx="315.5" cy="374" r="1.5" class="xychart-grid"/>
<circle cx="334.3" cy="374" r="1.5" class="xychart-grid"/>
<circle cx="353" cy="374" r="1.5" class="xychart-grid"/>
<circle cx="371.8" cy="374" r="1.5" class="xychart-grid"/>
<circle cx="390.5" cy="374" r="1.5" class="xychart-grid"/>
<circle cx="409.3" cy="374" r="1.5" class="xychart-grid"/>
<circle cx="428" cy="374" r="1.5" class="xychart-grid"/>
<circle cx="446.8" cy="374" r="1.5" class="xychart-grid"/>
<circle cx="465.5" cy="374" r="1.5" class="xychart-grid"/>
<circle cx="484.3" cy="374" r="1.5" class="xychart-grid"/>
<circle cx="503" cy="374" r="1.5" class="xychart-grid"/>
<circle cx="521.8" cy="374" r="1.5" class="xychart-grid"/>
<circle cx="540.5" cy="374" r="1.5" class="xychart-grid"/>
<circle cx="559.3" cy="374" r="1.5" class="xychart-grid"/>
<circle cx="578" cy="374" r="1.5" class="xychart-grid"/>
<circle cx="596.8" cy="374" r="1.5" class="xychart-grid"/>
<circle cx="615.5" cy="374" r="1.5" class="xychart-grid"/>
<circle cx="634.3" cy="374" r="1.5" class="xychart-grid"/>
<circle cx="653" cy="374" r="1.5" class="xychart-grid"/>
<circle cx="671.8" cy="374" r="1.5" class="xychart-grid"/>
<circle cx="690.5" cy="374" r="1.5" class="xychart-grid"/>
<circle cx="709.3" cy="374" r="1.5" class="xychart-grid"/>
<circle cx="728" cy="374" r="1.5" class="xychart-grid"/>
<circle cx="128" cy="393.4" r="1.5" class="xychart-grid"/>
<circle cx="146.8" cy="393.4" r="1.5" class="xychart-grid"/>
<circle cx="165.5" cy="393.4" r="1.5" class="xychart-grid"/>
<circle cx="184.3" cy="393.4" r="1.5" class="xychart-grid"/>
<circle cx="203" cy="393.4" r="1.5" class="xychart-grid"/>
<circle cx="221.8" cy="393.4" r="1.5" class="xychart-grid"/>
<circle cx="240.5" cy="393.4" r="1.5" class="xychart-grid"/>
<circle cx="259.3" cy="393.4" r="1.5" class="xychart-grid"/>
<circle cx="278" cy="393.4" r="1.5" class="xychart-grid"/>
<circle cx="296.8" cy="393.4" r="1.5" class="xychart-grid"/>
<circle cx="315.5" cy="393.4" r="1.5" class="xychart-grid"/>
<circle cx="334.3" cy="393.4" r="1.5" class="xychart-grid"/>
<circle cx="353" cy="393.4" r="1.5" class="xychart-grid"/>
<circle cx="371.8" cy="393.4" r="1.5" class="xychart-grid"/>
<circle cx="390.5" cy="393.4" r="1.5" class="xychart-grid"/>
<circle cx="409.3" cy="393.4" r="1.5" class="xychart-grid"/>
<circle cx="428" cy="393.4" r="1.5" class="xychart-grid"/>
<circle cx="446.8" cy="393.4" r="1.5" class="xychart-grid"/>
<circle cx="465.5" cy="393.4" r="1.5" class="xychart-grid"/>
<circle cx="484.3" cy="393.4" r="1.5" class="xychart-grid"/>
<circle cx="503" cy="393.4" r="1.5" class="xychart-grid"/>
<circle cx="521.8" cy="393.4" r="1.5" class="xychart-grid"/>
<circle cx="540.5" cy="393.4" r="1.5" class="xychart-grid"/>
<circle cx="559.3" cy="393.4" r="1.5" class="xychart-grid"/>
<circle cx="578" cy="393.4" r="1.5" class="xychart-grid"/>
<circle cx="596.8" cy="393.4" r="1.5" class="xychart-grid"/>
<circle cx="615.5" cy="393.4" r="1.5" class="xychart-grid"/>
<circle cx="634.3" cy="393.4" r="1.5" class="xychart-grid"/>
<circle cx="653" cy="393.4" r="1.5" class="xychart-grid"/>
<circle cx="671.8" cy="393.4" r="1.5" class="xychart-grid"/>
<circle cx="690.5" cy="393.4" r="1.5" class="xychart-grid"/>
<circle cx="709.3" cy="393.4" r="1.5" class="xychart-grid"/>
<circle cx="728" cy="393.4" r="1.5" class="xychart-grid"/>
<circle cx="128" cy="412.7" r="1.5" class="xychart-grid"/>
<circle cx="146.8" cy="412.7" r="1.5" class="xychart-grid"/>
<circle cx="165.5" cy="412.7" r="1.5" class="xychart-grid"/>
<circle cx="184.3" cy="412.7" r="1.5" class="xychart-grid"/>
<circle cx="203" cy="412.7" r="1.5" class="xychart-grid"/>
<circle cx="221.8" cy="412.7" r="1.5" class="xychart-grid"/>
<circle cx="240.5" cy="412.7" r="1.5" class="xychart-grid"/>
<circle cx="259.3" cy="412.7" r="1.5" class="xychart-grid"/>
<circle cx="278" cy="412.7" r="1.5" class="xychart-grid"/>
<circle cx="296.8" cy="412.7" r="1.5" class="xychart-grid"/>
<circle cx="315.5" cy="412.7" r="1.5" class="xychart-grid"/>
<circle cx="334.3" cy="412.7" r="1.5" class="xychart-grid"/>
<circle cx="353" cy="412.7" r="1.5" class="xychart-grid"/>
<circle cx="371.8" cy="412.7" r="1.5" class="xychart-grid"/>
<circle cx="390.5" cy="412.7" r="1.5" class="xychart-grid"/>
<circle cx="409.3" cy="412.7" r="1.5" class="xychart-grid"/>
<circle cx="428" cy="412.7" r="1.5" class="xychart-grid"/>
<circle cx="446.8" cy="412.7" r="1.5" class="xychart-grid"/>
<circle cx="465.5" cy="412.7" r="1.5" class="xychart-grid"/>
<circle cx="484.3" cy="412.7" r="1.5" class="xychart-grid"/>
<circle cx="503" cy="412.7" r="1.5" class="xychart-grid"/>
<circle cx="521.8" cy="412.7" r="1.5" class="xychart-grid"/>
<circle cx="540.5" cy="412.7" r="1.5" class="xychart-grid"/>
<circle cx="559.3" cy="412.7" r="1.5" class="xychart-grid"/>
<circle cx="578" cy="412.7" r="1.5" class="xychart-grid"/>
<circle cx="596.8" cy="412.7" r="1.5" class="xychart-grid"/>
<circle cx="615.5" cy="412.7" r="1.5" class="xychart-grid"/>
<circle cx="634.3" cy="412.7" r="1.5" class="xychart-grid"/>
<circle cx="653" cy="412.7" r="1.5" class="xychart-grid"/>
<circle cx="671.8" cy="412.7" r="1.5" class="xychart-grid"/>
<circle cx="690.5" cy="412.7" r="1.5" class="xychart-grid"/>
<circle cx="709.3" cy="412.7" r="1.5" class="xychart-grid"/>
<circle cx="728" cy="412.7" r="1.5" class="xychart-grid"/>
<circle cx="128" cy="432" r="1.5" class="xychart-grid"/>
<circle cx="146.8" cy="432" r="1.5" class="xychart-grid"/>
<circle cx="165.5" cy="432" r="1.5" class="xychart-grid"/>
<circle cx="184.3" cy="432" r="1.5" class="xychart-grid"/>
<circle cx="203" cy="432" r="1.5" class="xychart-grid"/>
<circle cx="221.8" cy="432" r="1.5" class="xychart-grid"/>
<circle cx="240.5" cy="432" r="1.5" class="xychart-grid"/>
<circle cx="259.3" cy="432" r="1.5" class="xychart-grid"/>
<circle cx="278" cy="432" r="1.5" class="xychart-grid"/>
<circle cx="296.8" cy="432" r="1.5" class="xychart-grid"/>
<circle cx="315.5" cy="432" r="1.5" class="xychart-grid"/>
<circle cx="334.3" cy="432" r="1.5" class="xychart-grid"/>
<circle cx="353" cy="432" r="1.5" class="xychart-grid"/>
<circle cx="371.8" cy="432" r="1.5" class="xychart-grid"/>
<circle cx="390.5" cy="432" r="1.5" class="xychart-grid"/>
<circle cx="409.3" cy="432" r="1.5" class="xychart-grid"/>
<circle cx="428" cy="432" r="1.5" class="xychart-grid"/>
<circle cx="446.8" cy="432" r="1.5" class="xychart-grid"/>
<circle cx="465.5" cy="432" r="1.5" class="xychart-grid"/>
<circle cx="484.3" cy="432" r="1.5" class="xychart-grid"/>
<circle cx="503" cy="432" r="1.5" class="xychart-grid"/>
<circle cx="521.8" cy="432" r="1.5" class="xychart-grid"/>
<circle cx="540.5" cy="432" r="1.5" class="xychart-grid"/>
<circle cx="559.3" cy="432" r="1.5" class="xychart-grid"/>
<circle cx="578" cy="432" r="1.5" class="xychart-grid"/>
<circle cx="596.8" cy="432" r="1.5" class="xychart-grid"/>
<circle cx="615.5" cy="432" r="1.5" class="xychart-grid"/>
<circle cx="634.3" cy="432" r="1.5" class="xychart-grid"/>
<circle cx="653" cy="432" r="1.5" class="xychart-grid"/>
<circle cx="671.8" cy="432" r="1.5" class="xychart-grid"/>
<circle cx="690.5" cy="432" r="1.5" class="xychart-grid"/>
<circle cx="709.3" cy="432" r="1.5" class="xychart-grid"/>
<circle cx="728" cy="432" r="1.5" class="xychart-grid"/>
<path d="M183,359.6 Q183,351.6 191,351.6 L215,351.6 Q223,351.6 223,359.6 L223,424 Q223,432 215,432 L191,432 Q183,432 183,424 Z" class="xychart-bar xychart-color-0" data-value="52" data-label="Q1"/>
<path d="M333,304 Q333,296 341,296 L365,296 Q373,296 373,304 L373,424 Q373,432 365,432 L341,432 Q333,432 333,424 Z" class="xychart-bar xychart-color-0" data-value="88" data-label="Q2"/>
<path d="M483,242.2 Q483,234.2 491,234.2 L515,234.2 Q523,234.2 523,242.2 L523,424 Q523,432 515,432 L491,432 Q483,432 483,424 Z" class="xychart-bar xychart-color-0" data-value="128" data-label="Q3"/>
<path d="M633,180.4 Q633,172.4 641,172.4 L665,172.4 Q673,172.4 673,180.4 L673,424 Q673,432 665,432 L641,432 Q633,432 633,424 Z" class="xychart-bar xychart-color-0" data-value="168" data-label="Q4"/>
<path d="M203,357.8 C253,327.6 303,297.4 353,283.6 C403,269.9 453,272.6 503,249.6 C553,226.6 603,177.9 653,129.1" class="xychart-line-shadow xychart-color-1" transform="translate(0,2)"/>
<path d="M203,357.8 C253,327.6 303,297.4 353,283.6 C403,269.9 453,272.6 503,249.6 C553,226.6 603,177.9 653,129.1" class="xychart-line xychart-color-1"/>
<text x="203" y="450" text-anchor="middle" font-size="14" font-weight="400" dy="0.35em" class="xychart-label">Q1</text>
<text x="353" y="450" text-anchor="middle" font-size="14" font-weight="400" dy="0.35em" class="xychart-label">Q2</text>
<text x="503" y="450" text-anchor="middle" font-size="14" font-weight="400" dy="0.35em" class="xychart-label">Q3</text>
<text x="653" y="450" text-anchor="middle" font-size="14" font-weight="400" dy="0.35em" class="xychart-label">Q4</text>
<text x="110" y="432" text-anchor="end" font-size="14" font-weight="400" dy="0.35em" class="xychart-label">0</text>
<text x="110" y="354.72727272727275" text-anchor="end" font-size="14" font-weight="400" dy="0.35em" class="xychart-label">50</text>
<text x="110" y="277.4545454545455" text-anchor="end" font-size="14" font-weight="400" dy="0.35em" class="xychart-label">100</text>
<text x="110" y="200.1818181818182" text-anchor="end" font-size="14" font-weight="400" dy="0.35em" class="xychart-label">150</text>
<text x="110" y="122.90909090909093" text-anchor="end" font-size="14" font-weight="400" dy="0.35em" class="xychart-label">200</text>
<text x="26" y="262" text-anchor="middle" transform="rotate(-90,26,262)" font-size="15" font-weight="500" dy="0.35em" class="xychart-axis-title">Items</text>
<text x="375" y="40" text-anchor="middle" font-size="18" font-weight="600" dy="0.35em" class="xychart-title">Research Output with Trend</text>
<rect x="314.65999999999997" y="71" width="14" height="14" rx="3" class="xychart-bar xychart-color-0"/>
<text x="334.65999999999997" y="78" text-anchor="start" font-size="14" font-weight="400" dy="0.35em" class="xychart-label">Bar 1</text>
<line x1="380.73199999999997" y1="78" x2="394.73199999999997" y2="78" stroke-width="2.5" stroke-linecap="round" class="xychart-legend-line xychart-color-1"/>
<text x="400.73199999999997" y="78" text-anchor="start" font-size="14" font-weight="400" dy="0.35em" class="xychart-label">Line 1</text>
<g class="xychart-bar-group"><rect x="183" y="351.6" width="40" height="80.4" fill="transparent"/><title>Q1: 52</title><rect x="179.3" y="301.6" width="47.3" height="32" rx="8" class="xychart-tip xychart-tip-bg"/><polygon points="197,333.6 209,333.6 203,339.6" class="xychart-tip xychart-tip-ptr"/><text x="203" y="317.6" text-anchor="middle" dy="0.35em" class="xychart-tip xychart-tip-text">52</text></g>
<g class="xychart-bar-group"><rect x="333" y="296" width="40" height="136" fill="transparent"/><title>Q2: 88</title><rect x="329.3" y="246" width="47.3" height="32" rx="8" class="xychart-tip xychart-tip-bg"/><polygon points="347,278 359,278 353,284" class="xychart-tip xychart-tip-ptr"/><text x="353" y="262" text-anchor="middle" dy="0.35em" class="xychart-tip xychart-tip-text">88</text></g>
<g class="xychart-bar-group"><rect x="483" y="234.2" width="40" height="197.8" fill="transparent"/><title>Q3: 128</title><rect x="477.6" y="184.2" width="50.8" height="32" rx="8" class="xychart-tip xychart-tip-bg"/><polygon points="497,216.2 509,216.2 503,222.2" class="xychart-tip xychart-tip-ptr"/><text x="503" y="200.2" text-anchor="middle" dy="0.35em" class="xychart-tip xychart-tip-text">128</text></g>
<g class="xychart-bar-group"><rect x="633" y="172.4" width="40" height="259.6" fill="transparent"/><title>Q4: 168</title><rect x="627.6" y="122.4" width="50.8" height="32" rx="8" class="xychart-tip xychart-tip-bg"/><polygon points="647,154.4 659,154.4 653,160.4" class="xychart-tip xychart-tip-ptr"/><text x="653" y="138.4" text-anchor="middle" dy="0.35em" class="xychart-tip xychart-tip-text">168</text></g>
<g class="xychart-dot-group"><circle cx="203" cy="357.8" r="15" fill="transparent" class="xychart-hit"/><circle cx="203" cy="357.8" r="5" class="xychart-dot xychart-color-1" data-value="48" data-label="Q1"/><title>Q1: 48</title><rect x="179.3" y="302.8" width="47.3" height="32" rx="8" class="xychart-tip xychart-tip-bg"/><polygon points="197,334.8 209,334.8 203,340.8" class="xychart-tip xychart-tip-ptr"/><text x="203" y="318.8" text-anchor="middle" dy="0.35em" class="xychart-tip xychart-tip-text">48</text></g>
<g class="xychart-dot-group"><circle cx="353" cy="283.6" r="15" fill="transparent" class="xychart-hit"/><circle cx="353" cy="283.6" r="5" class="xychart-dot xychart-color-1" data-value="96" data-label="Q2"/><title>Q2: 96</title><rect x="329.3" y="228.6" width="47.3" height="32" rx="8" class="xychart-tip xychart-tip-bg"/><polygon points="347,260.6 359,260.6 353,266.6" class="xychart-tip xychart-tip-ptr"/><text x="353" y="244.6" text-anchor="middle" dy="0.35em" class="xychart-tip xychart-tip-text">96</text></g>
<g class="xychart-dot-group"><circle cx="503" cy="249.6" r="15" fill="transparent" class="xychart-hit"/><circle cx="503" cy="249.6" r="5" class="xychart-dot xychart-color-1" data-value="118" data-label="Q3"/><title>Q3: 118</title><rect x="480.2" y="194.6" width="45.6" height="32" rx="8" class="xychart-tip xychart-tip-bg"/><polygon points="497,226.6 509,226.6 503,232.6" class="xychart-tip xychart-tip-ptr"/><text x="503" y="210.6" text-anchor="middle" dy="0.35em" class="xychart-tip xychart-tip-text">118</text></g>
<g class="xychart-dot-group"><circle cx="653" cy="129.1" r="15" fill="transparent" class="xychart-hit"/><circle cx="653" cy="129.1" r="5" class="xychart-dot xychart-color-1" data-value="196" data-label="Q4"/><title>Q4: 196</title><rect x="627.6" y="74.1" width="50.8" height="32" rx="8" class="xychart-tip xychart-tip-bg"/><polygon points="647,106.1 659,106.1 653,112.1" class="xychart-tip xychart-tip-ptr"/><text x="653" y="90.1" text-anchor="middle" dy="0.35em" class="xychart-tip xychart-tip-text">196</text></g>
</svg>